<?xml version="1.0" encoding="utf-8"?>
<!-- Generator: Adobe Illustrator 25.4.1, SVG Export Plug-In . SVG Version: 6.00 Build 0)  -->
<svg version="1.1" id="kukidato" xmlns="http://www.w3.org/2000/svg" xmlns:xlink="http://www.w3.org/1999/xlink" x="0px" y="0px"
	 viewBox="0 0 1087.5 1087.5" style="enable-background:new 0 0 1087.5 1087.5;" xml:space="preserve">
<style type="text/css">
	.st0{fill:#F0883F;}
	.st1{fill:#FFFFFF;}
	.st2{fill:#030304;}
	.st3{fill:#F6B02D;}
	.st4{fill:#11110E;}
	.st5{fill:#12110E;}
	.st6{fill:#1D1D1C;}
	.st7{fill:#F8F1F4;}
</style>
<g>
	<g>
		<path class="st0" d="M142.4,557.9c0,0.1,0,0.2,0,0.3h806.3v0L142.4,557.9z"/>
		<g>
			<path class="st1" d="M948.7,557.9c0-226.5-180.5-410.1-403.2-410.1c-222.7,0-403.1,183.6-403.1,410.1l0,0l806.3,0.3
				C948.7,558.1,948.7,558,948.7,557.9z"/>
			<path class="st2" d="M949.4,558.8h-0.7l-807-0.3v-0.7c0-109.7,42-212.9,118.3-290.5c76.3-77.6,177.7-120.3,285.6-120.3
				c107.9,0,209.3,42.7,285.6,120.3c76.3,77.6,118.3,180.8,118.3,290.5V558.8z M143.1,557.2l804.9,0.3
				c-0.1-109.2-42-211.8-117.9-289.1C754.1,191,653,148.5,545.5,148.5c-107.5,0-208.6,42.6-284.6,119.9
				C185.1,345.5,143.2,448.1,143.1,557.2z"/>
		</g>
		<path class="st3" d="M545.5,968c222.5,0,403-183.5,403.2-409.8H142.4C142.5,784.5,322.9,968,545.5,968"/>
		<path class="st3" d="M373.2,406.7c-4.7,7.8-14.8,10.3-22.5,5.4c-7.7-4.8-10.1-15.1-5.3-22.9c4.7-7.8,14.8-10.3,22.5-5.4
			C375.6,388.6,378,398.8,373.2,406.7"/>
		<path class="st3" d="M699,444.4c37.9-0.2,68.7,17.7,68.9,40c0.1,22.3-30.5,5.6-68.3,5.9c-37.9,0.2-68.7,17.3-68.9-5
			C630.5,463,661.1,444.7,699,444.4"/>
		<path class="st4" d="M141.1,561.5l85.9,0.3c1.1,6.3,5.4,11.7,11.4,13.8c3.2,3,7.3,4.7,11.7,4.7c3.7,0,7.3-1.2,10.2-3.5
			c7.2-1.6,12.5-7.6,13.4-15h168.9c1.1,6.3,5.4,11.7,11.4,13.8c3.2,3,7.3,4.7,11.7,4.7c3.7,0,7.3-1.2,10.3-3.5
			c7.2-1.6,12.5-7.6,13.4-15h48.4c0.9,6.6,5.3,12.2,11.5,14.3c3.2,3,7.3,4.7,11.7,4.7c3.7,0,7.3-1.2,10.2-3.5
			c3.6-0.8,6.7-2.7,9.1-5.4c2.4-2.7,4-6.3,4.4-10.1h216.9c0.4,2.9,1.5,5.6,3.2,8c2,2.9,4.9,5.2,8.3,6.4c3.2,3,7.3,4.7,11.7,4.7
			c3.7,0,7.3-1.2,10.2-3.5c7.3-1.6,12.7-7.9,13.5-15.5h20c0-0.5,81.1,0.9,81.4,0.2c0.1-0.2,0.1-6.3-0.1-6.4
			c-7.5-2.6-80.5-0.5-80.7-0.7H848c-2.1-9-11.6-15.7-23-15.7c-7.2,0-14,2.7-18.4,7.4l-0.1,0.1c-0.3,0.4-0.6,0.7-0.9,1
			c-0.2,0.2-0.3,0.4-0.5,0.6l-0.1,0.2c-0.2,0.2-0.3,0.5-0.5,0.7c-0.1,0.1-0.2,0.2-0.2,0.4c0,0-0.1,0.1-0.1,0.1
			c-1.3-12.7-4.2-24.8-8.5-36.1c8.6-11.5,14.3-24.5,16.4-38.5c0.6-4,0.9-8,0.9-12.2c0-1.2,0-2.4-0.1-3.6c-0.1-3.4-0.5-6.7-1-9.9
			c-0.8-4.7-2-9.3-3.6-13.7c-3.5-9.8-8.7-18.9-15.5-27.2c2.4-12.5-0.5-42.3-10.8-44.4c-6.4-1.3-14.2,8.3-19.7,18.7
			c-19.7-11.4-43.7-18.2-69.7-18.2c-26,0-50,6.7-69.7,18.2c-5.6-10.5-13.4-20-19.7-18.7c-10.3,2.1-13.2,31.9-10.8,44.4
			c-6.8,8.3-12.1,17.5-15.5,27.3c-1.6,4.5-2.8,9.2-3.6,13.9c-0.5,3.2-0.9,6.5-1,9.8c-0.1,1.1-0.1,2.3-0.1,3.4c0,4.2,0.3,8.4,1,12.4
			c2.2,13.9,7.8,26.8,16.3,38.3c-4.1,10.9-7,22.5-8.3,34.6c-4.1-5.5-11.5-9-19.8-9c-7.3,0-14,2.7-18.5,7.4l-0.1,0.1
			c-0.3,0.4-0.6,0.7-0.9,1c-0.1,0.2-0.3,0.4-0.4,0.6l-0.1,0.2c-0.2,0.2-0.4,0.5-0.5,0.7c-0.1,0.1-0.1,0.2-0.2,0.4
			c-0.8,1.3-1.5,2.7-1.9,4.2l-0.1,0.3c-0.1,0.3-0.2,0.6-0.2,0.9h-49.1c-1.8-9.3-11.5-16.2-23.1-16.2c-2.2,0-4.4,0.3-6.5,0.8
			c0.6-15.2,8.8-28.3,20.3-46.6c3.8-6.2,8.2-13.1,12.7-20.8c10.8-18.8,13-41,9.6-59.7c-0.4-2.4-1-4.7-1.6-6.9
			c-2.2-8.1-5.4-15.2-9.4-20.9c-6.7-9.4-14.8-13.5-22.9-11.7c-2.6,0.6-5.1,1-7.6,1.2c-2.4,0.2-4.7,0.3-7.1,0.2
			c-15.4-0.6-28.3-7.7-40.2-15.6c-18.6-12.3-68.4-37.7-131-6.4c-1.8,0.9-3.6,2-5.2,3.1c-1.9,1.3-3.7,2.7-5.3,4.2
			c-16.7,15.3-24.6,43.4-27.5,74.2c-0.6,6.5-1,13.1-1.3,19.7c-1.1,31.2,1.7,63,4.5,85.4c-6.1,0.6-11.6,3.2-15.5,7.3l-0.1,0.1
			c-0.3,0.4-0.6,0.7-0.9,1c-0.2,0.2-0.3,0.4-0.5,0.6l-0.1,0.2c-0.2,0.2-0.3,0.5-0.5,0.7c-0.1,0.1-0.1,0.2-0.2,0.4
			c-0.9,1.4-1.5,2.7-1.9,4.2l-0.1,0.3c-0.1,0.3-0.2,0.7-0.3,1c0,0.1,0,0.3-0.1,0.4l-86.1,0.6C141,559,141.1,561.8,141.1,561.5
			 M808.1,559.4c0-0.9,0.1-1.7,0.3-2.6c0.1-0.2,0.1-0.4,0.1-0.6l0.1-0.2c0.1-0.3,0.2-0.6,0.3-0.9c0.2-0.5,0.5-1.1,0.8-1.6l0.1-0.2
			c0.1-0.2,0.2-0.3,0.3-0.4l0.1-0.1c0.1-0.2,0.2-0.3,0.3-0.4c0.2-0.3,0.4-0.5,0.6-0.7l0.1-0.1c3.1-3.3,8.3-5.3,13.6-5.3
			c7.4,0,13.9,3.7,16,8.9c0.3,0.8,0.6,1.7,0.7,2.5l0,0.2c0.2,0.7,0.2,1.5,0.2,2.2c0,0.6,0,1.2-0.1,1.8c-0.7,4.6-4.2,8.2-8.7,9
			l-0.9,0.2l-0.7,0.6c-1.9,1.6-4.2,2.5-6.6,2.5c-2.8,0-5.5-1.2-7.5-3.2l-0.6-0.6l-0.9-0.3c-3.7-1.1-6.6-4.3-7.4-8.1
			C808.2,561,808.1,560.2,808.1,559.4 M587.1,555c0.8-12.3,3.3-24.1,7.1-35.1c0.6-1.8,1.3-3.6,2-5.4c0.4-1.1,0.2-2.4-0.5-3.3
			c-1.2-1.6-2.3-3.1-3.4-4.7c-6.1-9.1-10.4-19.1-12.4-29.7c4.4,0.2,7.6-0.8,8.5-3.1c1.2-3.3-3-8-9.8-11.4c0-3.3,0.3-6.7,0.8-9.9
			c7.4,2.1,13.9,1.4,15.1-2c1.3-3.6-3.8-8.8-11.6-12.2c2.7-7.8,6.7-15.1,11.8-21.9c7.9-10.6,18.4-19.8,30.9-27.1
			c18.8-11,41.9-17.5,66.8-17.5c24.9,0,48,6.5,66.8,17.4c12.4,7.3,22.9,16.5,30.9,27.1c5,6.7,9,14,11.7,21.6
			c-8.1,3.4-13.5,8.8-12.2,12.5c1.3,3.4,8,4.1,15.7,1.8c0.5,3.2,0.8,6.5,0.8,9.8c-7.1,3.4-11.7,8.3-10.4,11.7
			c0.9,2.4,4.5,3.5,9.2,3.1c-2,10.6-6.2,20.6-12.4,29.7c-1.1,1.6-2.2,3.2-3.4,4.7c-0.7,1-0.9,2.2-0.5,3.4c0.7,1.8,1.4,3.5,2,5.4
			c3.8,11,6.3,22.8,7.1,35.1H587.1z M544.3,559.4c0-0.9,0.1-1.7,0.3-2.6c0-0.2,0.1-0.4,0.1-0.6l0-0.2c0.1-0.3,0.2-0.6,0.4-0.9
			c0.2-0.5,0.5-1.1,0.8-1.6l0.1-0.2c0.1-0.2,0.2-0.3,0.3-0.4l0.1-0.1c0.1-0.2,0.2-0.3,0.3-0.4c0.2-0.3,0.4-0.5,0.6-0.7l0.1-0.1
			c3.1-3.3,8.3-5.1,13.6-5.3c6.4-0.3,11.5,2.4,15.2,7.7c0.6,0.8,1.1,2.3,1.4,3.3l0.2,0.9c0.2,0.7,0.2,0.1,0.2,0.9
			c0,0.6-0.1,2.4-0.2,2.9c-0.7,4.6-4.2,8.2-8.7,9l-0.9,0.2l-0.7,0.6c-1.9,1.6-4.2,2.5-6.7,2.5c-2.8,0-5.5-1.2-7.5-3.2l-0.6-0.6
			l-0.8-0.3c-3.7-1.1-6.5-4.3-7.4-8.1C544.4,561,544.3,560.2,544.3,559.4 M449.1,558.8c0-0.9,0.1-1.8,0.3-2.6
			c0.1-0.3,0.1-0.4,0.2-0.6l0.1-0.2c0-0.1,0.1-0.3,0.2-0.4c0.2-0.7,0.6-1.4,1-2.1l0.1-0.2c0.1-0.2,0.2-0.3,0.3-0.4l0.1-0.1
			c0.2-0.2,0.2-0.3,0.3-0.4c0.2-0.2,0.4-0.4,0.5-0.6l0.1-0.1c0.3-0.4,0.7-0.7,1.1-1c1.7-1.5,3.9-2.7,6.3-3.4c2-0.6,4.1-1,6.3-1
			c7.6,0,14.3,4,16.2,9.4c0.2,0.6,0.4,1.3,0.5,2l0,0.2c0.1,0.7,0.2,1.5,0.2,2.2c0,0.8-0.1,1.6-0.2,2.4c-0.9,4.3-4.2,7.7-8.6,8.5
			l-0.9,0.1l-0.7,0.6c-1.4,1.2-3.1,2-4.9,2.3c-0.6,0.1-1.1,0.2-1.7,0.2c-1.8,0-3.5-0.5-5-1.3c-0.9-0.5-1.7-1.2-2.5-1.9l-0.6-0.6
			l-0.9-0.2c-3.6-1.1-6.3-4-7.2-7.6C449.3,560.8,449.1,559.8,449.1,558.8 M254.2,539.1c-2.3-18.7-4.7-44.3-4.8-70.5
			c9,17.4,21,29.7,33.7,32.6c1.8,0.4,3.7,0.7,5.8,0.7c7.8,0,17.3-3.8,26.1-17.7c20.4-32.7-14.4-93.4-34.2-123.3
			c1.4-1,2.9-1.8,4.4-2.6c59.5-29.7,106.8-5.7,124.4,6c12,8,26.1,15.7,42.9,16.7c0,0.6,0,1.2,0,1.8c0,18.6,15.1,33.7,33.6,33.7
			c3.4,0,6.6-0.5,9.7-1.4c2.8,16.9,0.6,36.7-9.1,53.6c-4.4,7.6-8.5,14.2-12.6,20.6c-12.2,19.4-21.6,34.4-21.4,52.8
			c-1.9,1.1-3.7,2.5-5.2,4.1l-0.1,0.1c-0.3,0.4-0.6,0.7-0.9,1c-0.2,0.2-0.3,0.4-0.4,0.6l-0.2,0.2c-0.2,0.2-0.3,0.5-0.5,0.7
			c-0.1,0.1-0.2,0.2-0.2,0.4c-0.8,1.4-1.5,2.7-1.9,4.2l-0.1,0.3c-0.1,0.3-0.2,0.7-0.3,1c0,0.1-0.1,0.3-0.1,0.4H273.4
			C271.8,546.7,264,540.4,254.2,539.1 M233.5,558.8c0-0.9,0.1-1.8,0.3-2.6c0-0.3,0.1-0.4,0.2-0.6l0.1-0.2c0-0.1,0.1-0.3,0.1-0.4
			c0.2-0.7,0.6-1.4,1-2.1l0.1-0.2c0.1-0.2,0.2-0.3,0.3-0.4l0.1-0.1c0.1-0.2,0.2-0.3,0.3-0.4c0.2-0.2,0.4-0.4,0.6-0.6l0.1-0.1
			c2.7-2.9,6.9-4.8,11.5-5.2c0.7-0.1,1.4-0.1,2.1-0.1c1.7,0,3.3,0.2,4.8,0.6c5.5,1.2,9.9,4.6,11.4,8.9c0.2,0.6,0.4,1.3,0.5,2l0,0.2
			c0.2,0.7,0.2,1.5,0.2,2.2c0,0.8-0.1,1.6-0.2,2.4c-0.9,4.3-4.2,7.7-8.5,8.5c0,0,0,0-0.1,0l-0.9,0.1l-0.7,0.6
			c-0.7,0.6-1.5,1.1-2.3,1.4c-1.4,0.7-2.9,1-4.4,1c-2.8,0-5.5-1.1-7.5-3.2l-0.6-0.6l-0.8-0.2c-3.6-1.1-6.3-4-7.3-7.6
			C233.6,560.8,233.5,559.8,233.5,558.8"/>
		<path class="st4" d="M665.6,478.3c3,0,5.4,2.5,5.4,5.5c0,3-2.4,5.5-5.4,5.5c-3,0-5.4-2.5-5.4-5.5
			C660.2,480.8,662.6,478.3,665.6,478.3"/>
		<path class="st4" d="M744.7,478.3c3,0,5.4,2.5,5.4,5.5c0,3-2.4,5.5-5.4,5.5c-3,0-5.4-2.5-5.4-5.5
			C739.3,480.8,741.7,478.3,744.7,478.3"/>
		<path class="st4" d="M686.4,504.1c1.9,0,3.3,1.5,3.3,3.4c0,3,2.4,5.4,5.3,5.4c2.9,0,5.3-2.4,5.3-5.4v-2.1h-1.4
			c-0.9,0-1.8-0.4-2.4-1c-0.6-0.6-1-1.5-1-2.4c0-1.9,1.5-3.5,3.4-3.5h1.4h6.7h1.4c0.9,0,1.8,0.4,2.4,1c0.6,0.6,1,1.5,1,2.4
			c0,1.9-1.5,3.5-3.4,3.5H707v2.1c0,0,0,0,0,0.1c0,3,2.4,5.4,5.3,5.4c2.9,0,5.3-2.4,5.3-5.4c0-1.9,1.5-3.4,3.3-3.4
			c1.9,0,3.4,1.5,3.4,3.4c0,6.7-5.4,12.2-12,12.2c-3.4,0-6.5-1.4-8.6-3.8l0,0c-2.2,2.3-5.2,3.7-8.6,3.7c-6.6,0-12-5.4-12-12.2
			C683,505.6,684.5,504.1,686.4,504.1"/>
		<path class="st4" d="M362.3,390.4c3,0,5.4,2.5,5.4,5.5c0,3-2.4,5.5-5.4,5.5c-3,0-5.4-2.5-5.4-5.5
			C356.9,392.8,359.3,390.4,362.3,390.4"/>
		<path class="st4" d="M395,380.5c3,0,5.4,2.4,5.4,5.5c0,3-2.4,5.5-5.4,5.5c-3,0-5.4-2.5-5.4-5.5C389.6,382.9,392,380.5,395,380.5"
			/>
		<path class="st4" d="M398.1,438.3c1.7-0.8,3.7,0,4.5,1.7c5.6,12.3,17.9,18.4,30.6,15.2c1.8-0.4,3.6,0.7,4.1,2.5
			c0.4,1.8-0.7,3.7-2.4,4.1c-2.9,0.7-5.7,1.1-8.5,1.1c-12.7,0-24.1-7.4-29.8-20C395.7,441.1,396.4,439.1,398.1,438.3"/>
		<path class="st5" d="M337,336.5c-6.4,6.5-11.3,14.4-18.4,20.3c-7.1,5.9-14.9,11-23.1,15.1c-8,4.1-16.4,7.3-24.9,9.8
			c-4.3,1.3-8.6,2.4-13,3.4c-4.7,1-9.6,1.5-14,3.4c-3.5,1.5-1.3,6.4,1.8,6.6c4.7,0.4,9.8-1.2,14.4-2.3c4.7-1.1,9.4-2.3,14-3.7
			c9.2-2.9,18.1-6.5,26.6-11.1c15.5-8.5,34.6-21.9,37.8-41C338.1,336.5,337.5,336,337,336.5"/>
		<path class="st1" d="M336.4,339.3c-13.3-21.8-23-41-36.4-62.8"/>
		<path class="st5" d="M338.1,339.3c-0.1-2.8-1.7-5.3-3-7.7c-1.5-2.8-3.1-5.5-4.6-8.3c-3-5.4-6-10.7-8.9-16.1
			c-6-10.9-11.8-22.1-19.3-32.1c-2-2.7-6-0.5-4.5,2.7c5.5,11.2,12.1,21.8,18.2,32.7c3,5.3,6,10.7,9.2,15.9c1.6,2.7,3.2,5.4,4.9,8.1
			c1.5,2.3,3,4.9,5.4,6.2C336.6,341.4,338.2,340.7,338.1,339.3"/>
		<path class="st5" d="M246.9,391.8c-0.9-4.8-3.8-9.6-5.9-14c-2.3-4.9-4.7-9.8-7.1-14.7c-4.6-9.6-9.2-19.3-14.4-28.6
			c-1.4-2.5-4.8-0.3-3.7,2.2c4.2,9.9,9,19.4,13.8,29c2.3,4.7,4.7,9.4,7,14.1c2.2,4.5,4.3,9.8,7.6,13.6
			C245.4,394.7,247.2,393.3,246.9,391.8"/>
		<path class="st5" d="M324.1,315.2c-3,2.1-5.4,5.3-8,8.1c-2.7,2.9-5.5,5.7-8.5,8.3c-6.8,6.1-14.3,11.3-22.1,15.8
			c-8.1,4.6-16.5,8.7-25.3,11.8c-4.4,1.5-8.8,2.9-13.3,4c-4.5,1.1-9.6,1.3-13.8,2.9c-3.7,1.4-3,6.5,0.9,6.9
			c4.7,0.4,10.4-1.3,14.9-2.4c4.7-1.2,9.3-2.6,13.8-4.2c9.1-3.3,18.1-7.5,26.4-12.6c7.9-4.9,15.4-10.6,22.2-17c3.1-3,6-6.2,8.6-9.6
			c2.4-3,5.1-6.7,5.8-10.6C325.8,315.6,324.9,314.6,324.1,315.2"/>
		<path class="st5" d="M251.2,235.6c-3.7-7.1-12.5-8.5-19.7-8.1c-8.7,0.5-17.4,3.6-24.3,8.9c-13.2,10.1-19.6,30.1-9.8,45
			c4.5,6.9,13.5,14.3,22.2,11.7c1.9-0.6,2.7-3.8,0.6-4.7c-3.4-1.5-7.2-2.5-10.4-4.6c-3.3-2.1-5.9-5.2-7.7-8.6
			c-4-7.8-2.5-17.5,1.8-24.8c9-15.1,30.9-21.7,46.4-13.7C250.9,236.8,251.5,236.2,251.2,235.6"/>
		<path class="st5" d="M321.1,338.4c0.8,2.3,1.8,4.5,2.8,6.7c0.5,1.1,1,2.2,1.6,3.3c0.3,0.5,0.5,1,0.7,1.5c0.4,0.7,0.7,1.5,1.3,2
			c0.9,0.7,2.1,1.1,3.1,0.4c1-0.7,1.4-1.7,1.2-2.9c-0.3-1.3-1.4-2.4-2.1-3.4c-0.8-1.1-1.6-2.1-2.4-3.1c-1.5-1.9-2.9-3.7-4.6-5.4
			C322.1,336.8,320.8,337.5,321.1,338.4"/>
		<path class="st5" d="M308.3,350.5c0.4,2,1,3.9,1.8,5.7c0.4,1,0.8,2.1,1.3,3.1c0.4,1,0.8,2,1.3,2.9c0.5,0.8,1.5,1.5,2.4,1.4
			c1.1-0.1,1.8-0.5,2.4-1.4c0.5-0.8,0.5-2,0-2.9c-0.5-0.9-1.2-1.8-1.9-2.7c-0.7-0.9-1.3-1.8-2-2.6c-1.2-1.6-2.5-3.1-4.1-4.4
			C309,349.3,308.2,349.7,308.3,350.5"/>
		<path class="st5" d="M292.4,362.2c0.2,0.8,0.3,1.5,0.6,2.2c0.3,0.7,0.5,1.5,0.8,2.3c0.5,1.4,1,2.9,1.5,4.3
			c0.2,0.6,0.4,1.3,0.8,1.8c0.6,0.8,1.5,1.3,2.5,1.2c1.1-0.1,1.9-0.7,2.3-1.7c0.3-0.6,0.3-1.3,0.1-1.9c-0.2-0.6-0.5-1-0.9-1.5
			c-1-1.2-1.9-2.4-2.9-3.6c-0.5-0.7-1.1-1.4-1.7-2.1c-0.6-0.7-1.2-1.3-1.8-1.9C293.2,360.7,292.2,361.3,292.4,362.2"/>
		<path class="st5" d="M276.2,370c0,0.5-0.1,1,0.1,1.4c0.1,0.4,0.2,0.8,0.4,1.1c0.3,0.8,0.5,1.6,0.8,2.4c0.3,0.8,0.5,1.6,0.8,2.4
			c0.1,0.4,0.3,0.7,0.4,1.1c0.1,0.3,0.2,0.7,0.4,1c0.3,0.6,0.8,0.8,1.4,1c0.4,0.2,1.1,0,1.5-0.2c0.4-0.3,0.7-0.7,0.9-1.2
			c0.4-1.2-0.5-2.4-1-3.4c-0.4-0.7-0.9-1.4-1.3-2.2c-0.4-0.7-0.9-1.5-1.3-2.2c-0.2-0.3-0.4-0.7-0.6-1c-0.3-0.4-0.7-0.7-1.1-1
			C276.9,369,276.2,369.5,276.2,370"/>
		<path class="st5" d="M257.8,376.3c-0.8,1-0.5,2.3-0.3,3.5c0.2,1,0.5,1.9,0.8,2.9c0.3,0.9,0.5,1.9,0.9,2.8c0.3,1,0.7,1.9,1.1,2.8
			c0.3,0.8,0.7,1.4,1.3,1.8c0.8,0.5,1.8,0.5,2.6,0.2c1.7-0.7,2.1-2.6,1.4-4.2c-0.4-0.9-0.8-1.9-1.3-2.8c-0.5-0.9-1-1.8-1.5-2.7
			c-0.5-0.9-1-1.8-1.6-2.6c-0.3-0.5-0.7-0.9-1.1-1.3c-0.4-0.3-0.7-0.6-1.2-0.6C258.4,375.9,258,376.1,257.8,376.3"/>
		<path class="st1" d="M324.7,321.3c0,0-27.6,40.2-84.7,49.8l6.6,16.7c0,0,48.5-2.9,88.8-49.4L324.7,321.3z"/>
		<path class="st5" d="M246.1,388.6l-7.1-18l0.9-0.1c56.2-9.5,84-49.1,84.3-49.5l0.6-0.9l11.5,18.5l-0.3,0.4
			c-20.9,24.1-44.1,36.3-59.8,42.3c-17.1,6.5-29.4,7.3-29.5,7.3L246.1,388.6z M240.9,371.6l6.1,15.5c5.2-0.5,50.1-5.9,87.5-48.7
			l-9.9-15.8C320.3,328.4,292.6,362.6,240.9,371.6z"/>
		<line class="st1" x1="328" y1="345.2" x2="322.2" y2="335.6"/>
		
			<rect x="324.4" y="334.8" transform="matrix(0.8586 -0.5127 0.5127 0.8586 -128.5395 214.8251)" class="st5" width="1.4" height="11.2"/>
		<line class="st1" x1="319.2" y1="354.1" x2="313.5" y2="344.5"/>
		
			<rect x="315.6" y="343.7" transform="matrix(0.8589 -0.5122 0.5122 0.8589 -134.2663 211.3033)" class="st5" width="1.4" height="11.2"/>
		<line class="st1" x1="309.4" y1="361.7" x2="303.7" y2="352"/>
		
			<rect x="305.8" y="351.3" transform="matrix(0.8594 -0.5113 0.5113 0.8594 -139.3577 206.8804)" class="st5" width="1.4" height="11.2"/>
		<line class="st1" x1="299.4" y1="371.4" x2="293.6" y2="361.8"/>
		
			<rect x="295.8" y="361" transform="matrix(0.8588 -0.5124 0.5124 0.8588 -145.9541 203.6939)" class="st5" width="1.4" height="11.2"/>
		<line class="st1" x1="287.8" y1="375.4" x2="282.1" y2="365.8"/>
		
			<rect x="284.2" y="365" transform="matrix(0.8588 -0.5124 0.5124 0.8588 -149.646 198.3394)" class="st5" width="1.4" height="11.2"/>
		<line class="st1" x1="275.6" y1="381.3" x2="269.9" y2="371.6"/>
		<polygon class="st5" points="275,381.6 269.3,372 270.5,371.3 276.2,380.9 		"/>
		<line class="st1" x1="263.8" y1="386.8" x2="258.1" y2="377.1"/>
		
			<rect x="260.3" y="376.3" transform="matrix(0.8581 -0.5135 0.5135 0.8581 -159.1025 188.2156)" class="st5" width="1.4" height="11.2"/>
		<path class="st5" d="M748.3,328.7c-4,0-8.2,1.5-12.2,2c-4.2,0.5-8.5,0.7-12.7,0.7c-8.8,0-17.7-1.1-26.3-2.6
			c-9.1-1.6-18.3-3.5-27.6-3.4c-4.4,0.1-8.8,0.6-13.1,1.8c-4.3,1.1-10.1,2.9-12.9,6.6c-1.9,2.4-0.2,5.9,3,5.3c2.4-0.5,4.6-2,6.8-2.9
			c2.3-1,4.6-1.7,7-2.3c4.4-1,8.8-1.2,13.3-1c9,0.3,17.8,2.3,26.7,3.5c8.7,1.1,17.4,1.8,26.2,1.3c4.1-0.2,8.2-0.8,12.3-1.8
			c3.5-0.9,8-2.2,10.5-5C749.9,330.1,749.4,328.7,748.3,328.7"/>
		<path class="st5" d="M746.4,375.8c2.4-5.3,2.6-11.5,3.2-17.3c0.6-6.3,1.2-12.5,1.7-18.8c0.9-12.5,1.7-25,2.6-37.4
			c0.8-11.8,1.6-23.7,2.6-35.5c0.4-5.5,0.9-10.9,1.5-16.4c0.3-2.6,0.5-5.2,0.7-7.8c0.2-2.6,0-4.7-0.5-7.2c-0.4-2.1-3.7-2.6-4.6-0.6
			c-1.1,2.3-1.8,4.3-2.2,6.8c-0.4,2.6-0.7,5.2-1,7.8c-0.6,5.4-1.1,10.9-1.5,16.3c-1,11.8-1.7,23.6-2.5,35.4
			c-0.8,12.5-1.5,24.9-2.3,37.4c-0.4,6.3-0.8,12.6-1.2,18.9c-0.4,5.9-1.3,12.2,0.1,18C743.2,376.9,745.7,377.3,746.4,375.8"/>
		<path class="st5" d="M755.3,231.2c-8.9-0.4-17.7,1.4-26.6,2c-9,0.6-18,0.9-27,0.6c-8.8-0.3-17.6-1.1-26.3-2.5
			c-9-1.5-17.9-4.3-27-5.3c-3.7-0.4-5.1,5.4-1.9,7.1c8.3,4.3,17.9,5.9,27.1,7.3c9.3,1.4,18.7,2.3,28.2,2.4
			c9.1,0.1,18.4-0.5,27.5-1.9c9.2-1.4,18.6-3,26.7-7.8C756.7,232.5,756.3,231.2,755.3,231.2"/>
		<path class="st5" d="M757.8,232.4c-11.3-9.1-26.1-13.7-39.9-16.8c-16.9-3.7-34.5-4.4-51.5-1.2c-4.8,0.9-9.5,2.1-14.1,3.8
			c-4.8,1.7-10.1,3.6-13.7,7.4c-2.3,2.4,0.1,5.7,3,5.2c5.3-0.9,10.2-3.7,15.3-5.4c5.1-1.6,10.3-2.9,15.6-3.7
			c10.3-1.7,20.9-1.8,31.3-0.7c9.9,1,19.5,2.9,29,5.5c8.1,2.2,16,5.2,24,7.7C757.7,234.4,758.6,233.1,757.8,232.4"/>
		<path class="st5" d="M639.9,378.2c3.9-11.6,5.6-23.7,7-35.8c1.4-12.5,2.3-25,2.5-37.6c0.2-12.3-0.1-24.7-1-37
			c-0.4-6.2-1-12.3-1.8-18.4c-0.7-6.1-1.2-12.4-3.9-18c-1.4-3-5.2-1.1-5.5,1.5c-0.8,6,0.7,12.3,1.5,18.3c0.7,6.1,1.3,12.3,1.8,18.4
			c1,11.9,1.4,23.8,1.4,35.8c0,11.9-0.5,23.8-1.5,35.7c-1,12.2-2.7,24.4-3.1,36.7C637.1,379.4,639.4,379.6,639.9,378.2"/>
		<path class="st5" d="M727.4,335.3c2.3-4.9,2.1-10.9,2.6-16.2c0.6-6.3,1.4-12.7,2.3-19c0.8-5.1,1.6-10.1,2.2-15.2
			c0.2-1.6,0.3-3.2,0.5-4.8c0-0.4,0.4-2.6,0.1-1.5c0.5-2.7-3.6-3.9-4.1-1.2c-0.4,2.1-1.1,4.2-1.5,6.3c-1.1,5.1-1.8,10.4-2.4,15.6
			c-0.8,6.3-1.4,12.6-1.8,18.9c-0.3,5.4-1.1,12.1,1.8,16.9C727.2,335.5,727.4,335.5,727.4,335.3"/>
		<path class="st5" d="M712,334.3c2-4.4,2.5-9.4,3.1-14.2c0.7-5.6,1.3-11.3,1.9-16.9c1.2-11,3-22.2,2.3-33.2
			c-0.1-1.8-2.7-2.4-3.3-0.5c-2.8,10.5-3.2,21.6-4.2,32.4c-0.5,5.5-1,10.9-1.3,16.3c-0.4,5.2-1.1,10.7,0.1,15.9
			C710.7,334.7,711.7,334.9,712,334.3"/>
		<path class="st5" d="M695.9,332.3c1.3-2,1.5-4.8,1.8-7.1c0.4-2.7,0.6-5.4,0.8-8.1c0.5-6,0.9-12,1.3-17.9c0.8-11.7,1.7-23.3,1.5-35
			c0-1.9-3.1-2.5-3.4-0.4c-1.8,11.6-2.4,23.2-3.1,34.9c-0.3,6-0.6,12-0.9,18c-0.2,2.9-0.3,5.8-0.3,8.6c0,2.4-0.1,5,0.9,7.1
			C694.8,332.9,695.6,332.7,695.9,332.3"/>
		<path class="st5" d="M659.8,330.9c2.2-5.7,2.2-12.1,2.4-18.2c0.1-6.4,0.1-12.8-0.2-19.2c-0.2-5-0.5-9.9-1-14.9
			c-0.2-1.5-0.3-3-0.7-4.5c-0.1-0.4-0.2-0.8-0.4-1.2c-0.2-0.5-0.2-1.7-0.1,0c-0.2-2.4-3.9-2.4-3.7,0c-0.1-0.9,0,0.1,0,0.4
			c0,0.4-0.1,0.8-0.1,1.2c-0.2,1.5-0.1,3,0,4.5c0.2,4.9,0.5,9.8,0.7,14.8c0.2,6.3,0.5,12.5,0.6,18.8c0,6-0.4,12.1,0.4,18.2
			C657.8,332.1,659.5,331.8,659.8,330.9"/>
		<path class="st5" d="M676.8,328.8c1.6-4.7,1.9-10,2.4-15c0.5-5.3,1-10.6,1.5-15.9c1-10.5,2.2-21.1,1.7-31.7
			c-0.1-2-3.2-2.7-3.7-0.5c-2.2,10.4-2.7,21-3.4,31.6l-1,15.9c-0.3,5.1-0.8,10.5,0,15.6C674.6,330.1,676.5,329.9,676.8,328.8"/>
		<path class="st1" d="M570.7,547.9c-5.2-2.3-17.6-6-26.3,5.9c-0.9,1.2-1.5,2.6-1.7,4.1c-0.6,3.4,0.3,10.7,9.1,13.5
			c14.1,4.4,0,0,0,0s6.7,8.5,15.9,1.5c0,0,19.1-4.4,7.2-21.6C573.8,549.7,572.3,548.6,570.7,547.9"/>
		<path class="st1" d="M834.4,547.3c-5.2-2.3-17.6-6.1-26.3,5.8c-0.9,1.2-1.5,2.6-1.7,4.1c-0.6,3.4,0.3,10.8,9.1,13.5
			c14.1,4.4,0,0,0,0s6.7,8.5,15.9,1.5c0,0,19.1-4.4,7.2-21.6C837.5,549.1,836,548,834.4,547.3"/>
		<path class="st1" d="M476,547.1c-5.2-2.3-17.6-6-26.2,5.8c-0.9,1.2-1.5,2.6-1.7,4.1c-0.6,3.4,0.3,10.7,9.1,13.4c14.1,4.4,0,0,0,0
			s6.7,8.5,15.9,1.5c0,0,19.1-4.4,7.2-21.5C479.2,548.9,477.7,547.8,476,547.1"/>
		<path class="st1" d="M260,547.5c-5-2.2-16.9-5.8-25.1,5.6c-0.8,1.2-1.4,2.5-1.6,3.9c-0.5,3.3,0.3,10.3,8.7,12.9c13.6,4.2,0,0,0,0
			s6.4,8.1,15.2,1.5c0,0,18.3-4.2,6.9-20.7C263.1,549.3,261.6,548.2,260,547.5"/>
		<path class="st6" d="M308.2,660.2c7-13.4,14-26.9,20.8-40.1c1-2.1,2.1-4,2.9-6.1c1.6-4.2,6-6.9,9.4-5.6c9.6,3.4,3.4,14.3,1.3,20.9
			c-3.6,10-7.5,19.8-12.2,29.6c-2.8,6.6-6.2,13.5-8.8,20.4c-2.1,5.5-3.4,11.3-6.2,16.6c-2.8,5-5.2,7.7-3.4,13.7
			c4.2,14,8.3,27.2,14.3,40.4c2.3,5.6,3.9,10.3,7.5,15c3.1,4.5,7,8.7,7.5,14.3c1,8.7-7.3,10.3-13.5,6.9c-8-4.5-11.4-14-14.5-22.2
			c-2.6-6.3-5.2-12.9-8.1-19.5c-1-2.4-7.5-12.7-7-15c-2.1,11.1-1.6,21.9-2.3,33c-0.5,7.4-1.3,22.7-11.2,23.2
			c-8.3,0.5-12.7-10.3-14-16.9c-1.8-8.4-0.5-17.1,0-25.6c0.3-8.7-0.3-17.2-0.3-25.9c-0.8-21.9,0.3-43.8-0.3-65.8
			c-0.3-11.1,0.5-22.2,1-33.5c0.3-6.3,1.6-14.3,10.1-11.9c20.2,5.8,20.8,27.2,20.5,45.4c0,4-0.8,8.2-0.8,12.2c0,0.8,1.3,8.7,1,9
			C304.5,668.9,306.1,664.2,308.2,660.2"/>
		<path class="st6" d="M377,759.5c-4.4,5.5-9.3,14.8-17.6,13.5c-6.7-0.8-11.4-8.2-14-13.7c-6.2-13.8-3.1-31.4-1.3-45.7
			c1.3-11.1,4.7-21.7,6.5-32.5c0.5-3.2,6-5,9.9-3.2c14.5,7.1,10.9,25.4,9.6,38.8c-0.5,6.3-1.8,12.9-2.6,19.3c-0.3,3.1-0.5,6.1-0.5,9
			c0,1.3,1,6.6,0.5,7.4c1-1.6,2.6-2.9,3.1-4.5c3.1-9.2,6.5-18.5,8.6-28c2.6-11.4,3.6-23.2,5.7-34.9c1-7.7,5.7-20.4,15.6-14
			c7.3,5,9.9,13.7,8.6,22.2c-1.3,9.5-3.9,19-5.2,28.8c-1,9.8-2.9,19.3-3.6,29.1c-0.5,10,1.8,17.9,7.5,25.9
			c6.5-5.6,20.8-52.3,27-59.9c5.7,2.4,5.2,7.9-0.3,21.6c-3.4,8.4-13.2,37.2-17.1,42.5c-5.4,7.6-14.8,10.8-23.1,5.5
			c-4.7-2.9-7.8-7.4-10.4-12.4c-0.5-1.3-5.7-15-6-15C378.3,759.3,377.2,759.3,377,759.5"/>
		<path class="st6" d="M465.7,684.5c3.9-8.4,7.8-17.4,15.8-23c6.5-4.5,13.8-5.8,21-2.1c1.3,0.8,2.1,2.9,3.1,4.5
			c4.7,9.2,3.9,18.7,1.8,28.8c-2.1,10.3-4.4,20.9-10.6,29.6c-4.7,6.3-9.9,12.4-17.6,16.9c0.5,2.9,1,6.3,1.8,9.8
			c2.3,11.1,6,21.6,13,30.9c2.6,3.2,6.7,3.7,9.6,0.3c7-7.9,10.7-17.4,13.8-27.5c2.3-8.2,5.2-16.1,7.8-24c0.8-2.1,11.2-9.2,5.2,12.2
			c-4.7,16.6-17.4,65.5-43.4,53.1c-7.5-3.7-12.4-10.8-16.3-18.5c-1.8-3.7-9.6-18.4-10.4-23v15.1c0,3.7,1.8,9.2,0,12.4
			c-1.6,3.4-8.1,6.1-11.7,6.6c-13.8,2.6-17.7-20.1-18.7-29.3c-2.1-15.3,0.5-139.7,6-148.7c3.1-5.3,9.9-9.8,16.1-7.1
			c8.3,3.4,8.3,16.1,8.3,23.8c0.3,13.5,0,27.2,0,40.7v27.7c0.5,0,0.8,0.3,1.3,0.5C462.9,690.8,464.2,687.7,465.7,684.5 M465.2,719.4
			c14.8-2.7,27.5-40.1,21-48.3C476.4,686.1,469.4,701.7,465.2,719.4"/>
		<path class="st6" d="M574,714.3c1.6,1.1,3.1,2.1,3.4,3.7c0.5,9-6.7,25.1-9.3,33.5c-2.3,7.4-5.7,16.1-11.7,21.4
			c-3.1,2.6-7.5,4-11.7,3.4c-17.1-1.8-21.3-25.9-21.5-39.9c-0.5-13.2-0.5-26.7,2.1-39.6c2.3-12.4,12.7-7.1,19.5-2.1
			c5.4,4,3.9,10.3,3.9,15.8c-0.5,15.3-4.1,30.4-0.5,45.7c0.3,1.9,0.8,3.4,1.3,5c0.8,0.3,1.3,0.8,1.8,0.5
			C562.3,756.9,570.9,712,574,714.3 M535.8,680.5c-6.7-1.1-12.2-6.3-11.7-15.3c0.3-5.5,6.2-11.9,11.9-11.9
			c6.7,0.5,14.5,0.8,14.8,12.4C552.4,677.6,539.5,681.1,535.8,680.5"/>
		<path class="st6" d="M601.3,765.3c0,8.7,0.5,20.6-10.9,21.1c-16.1,0.8-19.2-20.1-19.5-32V722c0-22.2,1.3-43.8,2.9-65.7
			c1-11.1,1-22.4,2.6-33.3c0.8-7.1,3.3-18.2,13-15.3c13.2,4,8.6,28.5,8.6,38.5c0.3,2.1,0.3,4.2,1.3,6.3c1.6-4.2,2.6-8.7,4.2-12.9
			c3.6-9.5,8.6-18.2,16.3-24.5c8-6.6,20.2-2.4,24.9,6.9c6,11.4,6,23.2,5.7,35.4c-0.3,16.4-4.9,31.7-12.5,45.7
			c-4.2,7.7-10.4,14.3-18.4,16.9c-3.9,1-8.6-0.8-12.7-1.3c-1-0.3-2.1-0.5-3.6-1C602.3,733.6,601,749.2,601.3,765.3 M616.3,643
			c-3.4,9.8-6,19.8-7,30.4c-1,9.2-2.9,18.5-4.4,28c-0.3,1.3-0.5,2.6-0.8,4.8c1.8-0.5,2.9-1.1,4.1-1.3c9.1-3.2,14.8-10.8,17.9-19
			c6-14.5,9.6-29.8,9.1-45.7c0-5.8,0.3-12.4-4.1-17.7C622.8,626.9,619.2,634.9,616.3,643"/>
		<path class="st6" d="M734.7,722.4c-4.4,8.4-9.1,16.6-13.8,24.8c-4.7,7.9-9.6,16.1-17.1,21.7c-8.8,6.3-19.5,11.1-30.1,6.9
			c-23.4-8.7-24.1-32.7-21.3-54.4c2.3-19.8,9.3-42.5,32.5-44.1c9.3-0.8,15,2.6,19.5,11.1c5.7,10.8,3.6,20.9-0.8,31.4
			c-5.2,12.7-14.3,21.4-23.1,30.9c-0.5,0.8-1.6,1.3-2.3,1.8c-0.8,0.3-1.6,0.5-2.3,0.8c-0.5,5.8,3.6,14,9.9,14.3
			c5.7,0.5,11.9-4.7,15.8-8.4c10.6-10.8,16.1-23.5,22.8-36.7C724.8,722.4,732.1,711.3,734.7,722.4 M675.5,725.5
			c5.5-5.3,15.1-23.8,13.7-30.4C680.2,703.6,678.4,715,675.5,725.5"/>
		<path class="st6" d="M770.8,741.6c0.5-2.9,4.7-32.5,9.3-29c1.6,1.3,3.9,3.4,3.9,5c0.3,12.1-2.3,23.2-4.4,34.8
			c-2.1,9.8-5.2,21.4-12.7,28.5c-3.9,4-9.8,5.8-15.3,5.8c-26.2-0.5-28.8-39.1-28.3-58.1c0.3-10,4.9-54.9,3.9-55.7
			c-4.2-2.4-17.7,4.5-17.7-6.1c0.5-7.7,13.8-6.6,18.4-6.6c2.1-12.4,2.9-24.3,4.4-36.7c1-9.2,4.1-20.1,15.3-18.2
			c18.4,2.9,9.6,36.7,9.6,49.1c0,3.2,1.3,5.3,4.7,6.1c3.6,0.8,14.6-1.1,15.8,5.3c0.8,4.2-2.9,6.8-5.7,6.3
			c-2.3-0.3-15.6-0.3-15.8,0.8c-1.3,17.7-2.6,35.1-3.9,52.5c-0.5,8.2,0,16.1,0.5,24.1c0.5,6.3-1.6,15.3,2.9,20.6
			C764.8,762.9,768.4,752.4,770.8,741.6"/>
		<path class="st6" d="M822.9,710.1c7.8-6.6,17.9-9.2,23.4-11.4c8.6-3.4,8.3,6.9,4.2,7.7c-4.9,1.1-16.6,6.3-19.5,8.4
			c-3.6,3.2-7.3,6.3-10.9,9.5c-2.1,1.6-2.1,3.4-0.5,5.8c13.2,20.1,15.1,53.9-5.4,69.7c-17.4,13.2-43.1,4.2-41.8-19.8
			c0.5-9,4.2-17.2,8.6-24.8c2.9-5,11.2-13,8.8-19.3c-7-18.8-13.2-36.4-8.3-56.8c3.4-14.6,13-35.9,30.9-25.9c1.3,0.8,2.6,1.6,3.6,2.4
			c4.7,2.4-1.8,8.2-3.6,10.8c-3.9,5.3-7,10.6-7.3,17.2c-0.5,6.3,0,12.7,1.3,18.7c0.3,1.3,6.2,16.6,7,15.9
			C816.7,715.1,819.8,712.5,822.9,710.1 M785.5,779.3c0.3,3.7,2.9,5,6,2.9c3.9-2.9,5.7-8.2,6.5-13c1-6.9-0.5-11.3-2.6-18
			C792,753.2,784.8,774.3,785.5,779.3"/>
		<path class="st1" d="M303.4,650.2c7-13.4,14-26.9,20.8-40.1c1-2.1,2.1-4,2.9-6.1c1.6-4.2,6-6.9,9.3-5.6c9.6,3.5,3.4,14.3,1.3,20.9
			c-3.6,10-7.5,19.8-12.2,29.6c-2.9,6.6-6.2,13.5-8.8,20.4c-2.1,5.5-3.4,11.4-6.2,16.6c-2.8,5-5.2,7.7-3.4,13.7
			c4.1,14,8.3,27.2,14.3,40.4c2.3,5.6,3.9,10.3,7.5,15.1c3.1,4.5,7,8.7,7.5,14.2c1,8.7-7.3,10.3-13.5,6.9c-8-4.5-11.4-14-14.5-22.2
			c-2.6-6.3-5.2-13-8.1-19.5c-1-2.4-7.5-12.7-7-15c-2.1,11.1-1.6,21.9-2.3,33c-0.5,7.4-1.3,22.7-11.2,23.2
			c-8.3,0.5-12.7-10.3-14-16.9c-1.8-8.4-0.5-17.2,0-25.6c0.3-8.7-0.3-17.2-0.3-25.9c-0.8-21.9,0.3-43.8-0.3-65.7
			c-0.3-11.1,0.5-22.2,1-33.5c0.3-6.3,1.5-14.3,10.1-11.9c20.2,5.8,20.8,27.2,20.5,45.4c0,4-0.8,8.2-0.8,12.2c0,0.8,1.3,8.7,1,9
			C299.8,659,301.3,654.2,303.4,650.2"/>
		<path class="st1" d="M372.2,749.5c-4.4,5.5-9.3,14.8-17.7,13.5c-6.7-0.8-11.4-8.2-14-13.7c-6.2-13.7-3.1-31.4-1.3-45.7
			c1.3-11.1,4.7-21.7,6.5-32.5c0.5-3.2,6-5,9.9-3.2c14.5,7.1,10.9,25.3,9.6,38.8c-0.5,6.3-1.8,12.9-2.6,19.3c-0.3,3.1-0.5,6.1-0.5,9
			c0,1.3,1,6.6,0.5,7.4c1-1.6,2.6-2.9,3.1-4.5c3.1-9.2,6.5-18.5,8.6-28c2.6-11.3,3.6-23.3,5.7-34.9c1-7.7,5.7-20.3,15.6-14
			c7.3,5,9.9,13.7,8.6,22.2c-1.3,9.5-3.9,19-5.2,28.7c-1,9.8-2.8,19.3-3.6,29.1c-0.5,10,1.8,18,7.5,25.9c6.5-5.5,20.8-52.3,27-59.9
			c5.7,2.4,5.2,7.9-0.3,21.7c-3.4,8.4-13.2,37.2-17.1,42.5c-5.4,7.7-14.8,10.9-23.1,5.6c-4.7-2.9-7.8-7.4-10.4-12.4
			c-0.5-1.3-5.7-15-6-15C373.5,749.3,372.4,749.3,372.2,749.5"/>
		<path class="st1" d="M461,674.5c3.9-8.4,7.8-17.4,15.8-23c6.5-4.5,13.8-5.8,21-2.1c1.3,0.8,2.1,2.9,3.1,4.5
			c4.7,9.2,3.9,18.8,1.8,28.8c-2.1,10.3-4.4,20.9-10.6,29.6c-4.7,6.3-9.9,12.4-17.6,16.9c0.5,2.9,1,6.4,1.8,9.8
			c2.3,11.1,6,21.7,13,30.9c2.6,3.2,6.7,3.7,9.6,0.2c7-7.9,10.7-17.4,13.8-27.4c2.4-8.2,5.2-16.1,7.8-24c0.8-2.1,11.2-9.2,5.2,12.1
			c-4.7,16.7-17.4,65.5-43.3,53.1c-7.5-3.7-12.5-10.8-16.4-18.5c-1.8-3.7-9.6-18.5-10.4-23v15c0,3.7,1.8,9.3,0,12.4
			c-1.6,3.4-8.1,6.1-11.7,6.6c-13.7,2.6-17.7-20.1-18.7-29.3c-2.1-15.3,0.5-139.7,6-148.7c3.1-5.3,9.9-9.8,16.1-7.1
			c8.3,3.4,8.3,16.1,8.3,23.8c0.3,13.5,0,27.2,0,40.7v27.7c0.5,0,0.8,0.3,1.3,0.5C458.1,680.9,459.4,677.7,461,674.5 M460.4,709.4
			c14.8-2.6,27.5-40.1,21-48.3C471.6,676.1,464.6,691.7,460.4,709.4"/>
		<path class="st1" d="M569.2,704.4c1.6,1.1,3.1,2.1,3.4,3.7c0.5,9-6.8,25.1-9.3,33.5c-2.3,7.4-5.7,16.1-11.7,21.4
			c-3.1,2.6-7.5,4-11.7,3.4c-17.1-1.8-21.3-25.9-21.6-39.9c-0.5-13.2-0.5-26.7,2.1-39.6c2.3-12.4,12.7-7.2,19.5-2.1
			c5.4,4,3.9,10.3,3.9,15.8c-0.5,15.3-4.1,30.4-0.5,45.7c0.3,1.8,0.8,3.4,1.3,5c0.8,0.2,1.3,0.8,1.8,0.5
			C557.5,746.9,566.1,702,569.2,704.4 M531,670.6c-6.7-1.1-12.2-6.3-11.7-15.3c0.3-5.6,6.2-11.9,11.9-11.9
			c6.7,0.6,14.5,0.8,14.8,12.4C547.6,667.7,534.7,671.1,531,670.6"/>
		<path class="st1" d="M596.5,755.3c0,8.7,0.5,20.6-10.9,21.1c-16.1,0.8-19.2-20.1-19.5-31.9V712c0-22.2,1.3-43.8,2.9-65.8
			c1-11.1,1-22.4,2.6-33.3c0.8-7.1,3.4-18.2,13-15.3c13.2,3.9,8.6,28.5,8.6,38.5c0.3,2.1,0.3,4.2,1.3,6.3c1.6-4.2,2.6-8.7,4.1-12.9
			c3.7-9.5,8.6-18.2,16.4-24.6c8-6.6,20.2-2.4,24.9,6.9c6,11.4,6,23.3,5.7,35.4c-0.2,16.4-4.9,31.7-12.5,45.7
			c-4.1,7.7-10.4,14.3-18.4,16.9c-3.9,1.1-8.6-0.8-12.7-1.3c-1-0.3-2.1-0.5-3.6-1.1C597.5,723.7,596.2,739.2,596.5,755.3
			 M611.5,633.1c-3.4,9.8-6,19.8-7,30.4c-1,9.2-2.9,18.5-4.4,28c-0.3,1.3-0.5,2.7-0.8,4.8c1.8-0.5,2.9-1,4.2-1.3
			c9.1-3.2,14.8-10.8,17.9-19c6-14.5,9.6-29.8,9.1-45.7c0-5.8,0.2-12.4-4.2-17.7C618,617,614.4,624.9,611.5,633.1"/>
		<path class="st1" d="M729.9,714.9c-4.4,8.4-9.1,16.6-13.8,24.8c-4.6,7.9-9.6,16.1-17.1,21.7c-8.8,6.3-19.5,11.1-30.1,6.9
			c-23.4-8.7-24.1-32.7-21.3-54.4c2.3-19.8,9.3-42.5,32.5-44.1c9.3-0.8,15,2.6,19.5,11.1c5.7,10.8,3.6,20.9-0.8,31.4
			c-5.2,12.7-14.3,21.4-23.1,30.9c-0.5,0.8-1.6,1.3-2.3,1.8c-0.8,0.3-1.6,0.5-2.3,0.8c-0.5,5.8,3.7,14,9.9,14.3
			c5.7,0.5,11.9-4.8,15.8-8.5c10.6-10.8,16.1-23.5,22.8-36.7C720,714.9,727.3,703.9,729.9,714.9 M670.7,718.1
			c5.4-5.3,15.1-23.8,13.7-30.4C675.4,696.2,673.6,707.5,670.7,718.1"/>
		<path class="st1" d="M766,731.6c0.5-2.9,4.7-32.5,9.3-29c1.6,1.3,3.9,3.4,3.9,5c0.3,12.2-2.3,23.2-4.4,34.9
			c-2.1,9.8-5.2,21.4-12.7,28.5c-3.9,4-9.9,5.8-15.3,5.8c-26.2-0.5-28.8-39.1-28.3-58.1c0.2-10,4.9-54.9,3.9-55.7
			c-4.2-2.4-17.7,4.5-17.7-6.1c0.5-7.7,13.8-6.6,18.4-6.6c2.1-12.4,2.9-24.3,4.4-36.7c1-9.2,4.1-20.1,15.3-18.2
			c18.4,2.9,9.6,36.7,9.6,49.1c0,3.2,1.3,5.3,4.7,6.1c3.6,0.8,14.5-1,15.8,5.3c0.8,4.2-2.8,6.9-5.7,6.3c-2.3-0.3-15.6-0.3-15.8,0.8
			c-1.3,17.7-2.6,35.1-3.9,52.5c-0.5,8.2,0,16.1,0.5,24c0.5,6.3-1.6,15.3,2.8,20.6C760,753,763.6,742.4,766,731.6"/>
		<path class="st1" d="M818.1,700.1c7.8-6.6,17.9-9.2,23.4-11.3c8.6-3.4,8.3,6.9,4.2,7.7c-4.9,1.1-16.6,6.3-19.5,8.5
			c-3.6,3.2-7.3,6.3-10.9,9.5c-2.1,1.6-2.1,3.4-0.5,5.8c13.2,20,15.1,53.9-5.4,69.7c-17.4,13.2-43.1,4.2-41.8-19.8
			c0.5-9,4.2-17.2,8.6-24.8c2.9-5,11.2-12.9,8.8-19.3c-7-18.8-13.2-36.4-8.3-56.8c3.4-14.5,13-35.9,30.9-25.9
			c1.3,0.8,2.6,1.6,3.6,2.4c4.7,2.4-1.8,8.2-3.6,10.8c-3.9,5.3-7,10.6-7.3,17.2c-0.5,6.3,0,12.7,1.3,18.7c0.3,1.3,6.2,16.6,7,15.9
			C811.9,705.2,815,702.5,818.1,700.1 M780.8,769.3c0.3,3.7,2.9,5,6,2.9c3.9-2.9,5.7-8.2,6.5-12.9c1-6.8-0.5-11.3-2.6-17.9
			C787.2,743.2,780,764.3,780.8,769.3"/>
		<path class="st7" d="M360.2,852.3l-1.1-3.4h-8.6l-1.1,3.4h-6.7l9.3-27.8h6l8.8,27.8H360.2z M352.7,842.5h4.4l-2.1-6.7L352.7,842.5
			z"/>
		<polygon class="st7" points="385,852.3 368.7,852.3 368.7,824.4 375,824.4 375,845.9 385,845.9 		"/>
		<rect x="387.6" y="824.4" class="st7" width="6.3" height="27.8"/>
		<polygon class="st7" points="415.9,824.4 422.4,824.4 423.9,852.3 417.7,852.3 417,840.9 413.2,852.3 406.9,852.3 402.9,840.4 
			402.1,852.3 395.8,852.3 397.5,824.4 404,824.4 410,841.9 		"/>
		<polygon class="st7" points="443,830.9 431.7,830.9 431.7,835.1 440.9,835.1 440.9,841.5 431.7,841.5 431.7,845.9 443,845.9 
			443,852.3 425.4,852.3 425.4,824.5 443,824.4 		"/>
		<polygon class="st7" points="462,824.4 468.3,824.4 468.3,852.3 461.5,852.3 452.5,836.1 452.5,852.3 446.2,852.3 446.2,824.5 
			453.1,824.5 462,840.7 		"/>
		<polygon class="st7" points="487.4,824.3 487.4,830.8 482.2,830.8 482.2,852.3 475.9,852.3 475.9,830.8 470.7,830.8 470.7,824.3 
					"/>
		<path class="st7" d="M505.8,852.3l-1.1-3.4h-8.6l-1.1,3.4h-6.7l9.3-27.8h6l8.8,27.8H505.8z M498.2,842.5h4.4l-2.2-6.7L498.2,842.5
			z"/>
		<path class="st7" d="M526.1,852.2c-1.8,0-3.5-0.3-5.2-1c-1.7-0.7-3.2-1.7-4.5-3c-1.3-1.4-2.3-2.9-3-4.5c-0.7-1.7-1-3.4-1-5.3
			c0-1.9,0.3-3.7,1-5.4c0.7-1.7,1.7-3.2,3-4.5c1.3-1.3,2.9-2.4,4.5-3.1c1.7-0.7,3.4-1,5.2-1c1.7,0,3.5,0.3,5.1,1
			c1.7,0.7,3.2,1.7,4.5,3.1l-4.4,4.6c-0.7-0.7-1.5-1.3-2.5-1.7c-0.9-0.4-1.8-0.5-2.8-0.5c-0.9,0-1.9,0.2-2.8,0.5
			c-0.9,0.4-1.7,0.9-2.4,1.7c-0.7,0.7-1.2,1.5-1.6,2.5c-0.4,0.9-0.6,1.9-0.6,2.9c0,1,0.2,2,0.6,2.8c0.4,0.9,0.9,1.7,1.6,2.5
			c0.7,0.7,1.5,1.3,2.4,1.6c0.9,0.4,1.8,0.6,2.8,0.6c0.9,0,1.9-0.2,2.8-0.6c0.9-0.4,1.8-0.9,2.5-1.6l4.4,4.6c-1.3,1.4-2.9,2.4-4.5,3
			C529.6,851.9,527.9,852.2,526.1,852.2"/>
		<rect x="537.6" y="824.4" class="st7" width="6.3" height="27.8"/>
		<path class="st7" d="M559.5,824.4c1.9,0,3.7,0.4,5.3,1.1c1.7,0.7,3.1,1.7,4.3,3c1.3,1.3,2.2,2.8,3,4.4c0.7,1.7,1.1,3.5,1.1,5.4
			c0,1.9-0.4,3.7-1.1,5.4c-0.7,1.7-1.7,3.1-3,4.4c-1.2,1.3-2.7,2.3-4.3,3c-1.7,0.8-3.4,1.1-5.3,1.1c-1.9,0-3.6-0.4-5.3-1.1
			c-1.7-0.7-3.1-1.7-4.3-3c-1.2-1.3-2.2-2.7-2.9-4.4c-0.7-1.7-1.1-3.5-1.1-5.4c0-1.9,0.4-3.7,1.1-5.4c0.7-1.7,1.7-3.1,2.9-4.4
			c1.2-1.2,2.7-2.2,4.3-3C555.8,824.8,557.6,824.4,559.5,824.4 M559.5,845.9c1,0,2-0.2,2.9-0.6c0.9-0.4,1.7-0.9,2.3-1.6
			c0.7-0.7,1.2-1.5,1.6-2.4c0.4-0.9,0.6-1.9,0.6-2.9c0-1.1-0.2-2-0.6-2.9c-0.4-0.9-0.9-1.7-1.6-2.4c-0.7-0.7-1.4-1.2-2.3-1.6
			c-0.9-0.4-1.8-0.6-2.9-0.6c-1,0-2,0.2-2.9,0.6c-0.9,0.4-1.7,0.9-2.3,1.6c-0.7,0.7-1.2,1.5-1.6,2.4c-0.4,0.9-0.6,1.9-0.6,2.9
			c0,1,0.2,2,0.6,2.9c0.4,0.9,0.9,1.7,1.6,2.4c0.7,0.7,1.5,1.2,2.3,1.6C557.5,845.7,558.5,845.9,559.5,845.9 M559.7,815.7h5.6
			l-3,6.4h-5.6L559.7,815.7z"/>
		<polygon class="st7" points="590.8,824.4 597.1,824.4 597.1,852.3 590.3,852.3 581.4,836.1 581.4,852.3 575.1,852.3 575.1,824.5 
			581.9,824.5 590.8,840.7 		"/>
		<polygon class="st7" points="622.7,824.4 629,824.4 629,852.3 622.1,852.3 613.2,836.1 613.2,852.3 606.9,852.3 606.9,824.5 
			613.8,824.5 622.7,840.7 		"/>
		<path class="st7" d="M648.1,852.3l-1.1-3.4h-8.6l-1.1,3.4h-6.7l9.3-27.8h6l8.8,27.8H648.1z M640.6,842.5h4.4l-2.2-6.7L640.6,842.5
			z"/>
		<polygon class="st7" points="672.3,824.3 672.3,830.8 667,830.8 667,852.3 660.7,852.3 660.7,830.8 655.5,830.8 655.5,824.3 		"/>
		<path class="st7" d="M685.3,852.3c-1.4,0-2.7-0.3-4-0.8c-1.2-0.5-2.3-1.3-3.3-2.2c-1-1-1.8-2.1-2.3-3.4c-0.5-1.3-0.8-2.6-0.8-4
			v-17.4h6.3v17.3c0,1.1,0.4,2.1,1.2,2.9c0.8,0.8,1.8,1.2,2.9,1.2c0.5,0,1.1-0.1,1.6-0.3c0.5-0.2,0.9-0.5,1.3-0.9
			c0.4-0.3,0.6-0.8,0.8-1.3c0.2-0.5,0.3-1,0.3-1.6v-17.2h6.3v17.2c0,1.5-0.2,2.8-0.8,4.1c-0.5,1.3-1.3,2.4-2.2,3.4
			c-0.9,1-2,1.7-3.3,2.3c-1.3,0.5-2.6,0.8-4,0.9H685.3z"/>
		<path class="st7" d="M707.7,845.1c-0.3,0-0.6,0.1-1,0.1c-0.3,0-0.7,0-1,0.1v7h-6.3v-27.7h6.3c1.6,0,3,0.3,4.4,0.9
			c1.4,0.5,2.6,1.3,3.6,2.2c1,0.9,1.8,2,2.4,3.2c0.6,1.3,0.9,2.6,0.9,4c0,1.5-0.3,2.9-0.9,4.2c-0.6,1.3-1.5,2.4-2.6,3.3l6,9.9h-7.4
			L707.7,845.1z M705.8,838.8c0.7,0,1.3-0.1,1.9-0.4c0.6-0.2,1.1-0.5,1.6-0.8c0.5-0.4,0.8-0.8,1.1-1.2c0.3-0.5,0.4-1,0.4-1.5
			c0-0.5-0.1-1-0.4-1.5c-0.3-0.5-0.6-0.9-1.1-1.2c-0.5-0.4-1-0.6-1.6-0.9c-0.6-0.2-1.3-0.3-1.9-0.4V838.8z"/>
		<path class="st7" d="M737.9,852.3l-1.1-3.4h-8.6l-1.1,3.4h-6.7l9.3-27.8h5.9l8.8,27.8H737.9z M730.4,842.5h4.4l-2.1-6.7
			L730.4,842.5z"/>
		<polygon class="st7" points="762.7,852.3 746.4,852.3 746.4,824.4 752.7,824.4 752.7,845.9 762.7,845.9 		"/>
		<path class="st1" d="M274.9,222.5c0,0,31.9,6.1,21.7,20.3c-10.3,14.2-79.7,86.9-79.7,86.9s-25.9,7.6-30.8-12.1
			c-4.9-19.7,10.3-29.9,10.3-29.9c10.3-9.6-6.4-26.8,14.7-45.1C234.5,222.1,252.9,243.9,274.9,222.5z"/>
		<path class="st5" d="M277.8,285.8c18.4,4.7,34.4-12.5,36.1-30.1c1.1-11.5-4.8-23.3-13.8-30c-11.2-8.4-25.9-8.6-37.9-2
			c-6.5,3.6-11.9,9-16.2,15.1c-2.2,3.2-4.2,6.7-5.8,10.2c-1.7,3.6-3.9,7.9-3.6,12c0.2,2.5,3.3,4.3,5.2,2.2c1.9-2.1,2.7-4.6,3.8-7.2
			c1.3-3,2.6-6,4.3-8.8c2.9-5,6.4-9.6,10.9-13.2c8.8-7.1,20.8-9.7,31.1-4.3c8.8,4.6,14.8,14.5,14.2,24.7c-0.1,2-0.6,4.2-1.4,6.6
			c-0.9,2.8-2.3,5.5-4,7.9c-5.5,8-14.3,10.2-23,12.9C275.9,282.5,275.8,285.3,277.8,285.8"/>
		<path class="st5" d="M240.8,305.8c-4.6,8.3-8.5,16.7-16.8,21.8c-7.9,4.9-18.7,5.9-26.8,1.1c-8.4-4.9-12.7-15.2-10.3-24.7
			c1.1-4.6,3.6-8.8,7.2-11.9c1.8-1.5,3.8-2.7,6-3.7c2.2-1,4.6-1.5,6.4-3.3c1.3-1.4,1.2-4-0.6-4.9c-4.4-2.1-9.6,0.4-13.4,2.8
			c-4,2.5-7.4,6-9.9,10.1c-5.1,8.6-5.5,19.5-1.4,28.5c8.5,18.5,32.2,21.9,47.4,10.1c7.6-5.9,14.2-15.6,14.2-25.5
			C242.6,305.4,241.3,305,240.8,305.8"/>
	</g>
</g>
</svg>
