<?xml version="1.0" encoding="utf-8"?>
<!-- Generator: Adobe Illustrator 25.4.1, SVG Export Plug-In . SVG Version: 6.00 Build 0)  -->
<svg version="1.1" id="Modo_de_aislamiento" xmlns="http://www.w3.org/2000/svg" xmlns:xlink="http://www.w3.org/1999/xlink"
	 x="0px" y="0px" viewBox="0 0 1087.5 584.2" style="enable-background:new 0 0 1087.5 584.2;" xml:space="preserve">
<style type="text/css">
	.st0{fill:#FFFFFF;}
	.st1{fill:#F6B02D;}
	.st2{fill:#11110E;}
	.st3{fill:#12110E;}
</style>
<g>
	<path class="st0" d="M551.1,491.1c0,0-2.9-22.3,21.1-24.6c24.1-2.3,26.4,15,26.4,15s7.3-27.9,9.1-34.9c1.8-7,5-17.9,5-17.9
		s-24.9-24.1-22.3-54.9s2.1-50.2,43.7-83.9c0,0,23.3-16.2,31.4-17.3c0,0,7.4-53.1,7.8-77.3c0.4-24.2-5.4-92.6-5.4-92.6
		S666.4,90,674,87.4c7.6-2.6,59-13.1,82.1-6.8c23.1,6.3,46.6,12.2,49.7,21.8s-8.7,86.7-8.7,86.7l-4.8,81c0,0,40.1,17,55.1,40.5
		c15,23.5,28.5,48.4,19.4,82.8c-9.1,34.4-18.7,35.1-18.7,35.1l12.9,54.5c0,0,7.4-18.9,26.4-18.5c18.9,0.4,24,25.7,24,25.7
		s-10.7,15.7-25.5,14.4s-21.6-13.9-21.6-13.9s-5-7.8-9.6-7.8s-251.4,0.7-251.4,0.7s-10.2,23.5-31.8,22.9
		C557.1,505.8,551.1,491.1,551.1,491.1z"/>
	<path class="st0" d="M240.8,159.9c0,0,40.1-11.8,37-39c-3.1-27.2-24.9-34.7-39.8-32.6s-29,11.3-31.8,16.9c0,0,3.9-7.7-12.3-11.8
		c-16.2-4.1-42.9,16.4-50.3,34.4s5.4,31.6,5.4,31.6s-27.2,9.8-20.5,38.5c6.7,28.8,42,20.7,42,20.7l32.7,66.1l17-0.3
		c0,0-21.7,55.8-17.3,107.6c4.4,51.9,3.9,69.9,3.9,69.9s-24.1,6.4-24.7,20.8c-0.5,14.4,16.4,23.1,23.6,22.3
		c7.2-0.8,21.1-5.9,23.9-18.2l208-3.3c0,0,3.9,14.9,13.4,19.5c9.5,4.6,27,0.3,30.8-5.1c3.9-5.4,5.1-22.3-4.1-28.8
		c-9.2-6.4-31.6,2.3-28.8-11s11.8-36.5,27.5-56.5c15.7-20,38.3-68.3,21.1-101.2s-26.7-33.6-39.8-32.1c-13.1,1.5-36.2,0-44.4-7.4
		s-47.3-32.9-87.8-34.2l-14.6,0.5l-46-76.8C264.7,150.4,257.5,157.1,240.8,159.9z"/>
	<path class="st1" d="M352.2,304.1c-5.6,9.3-17.6,12.2-26.7,6.4c-9.1-5.7-11.9-17.9-6.3-27.1c5.6-9.3,17.6-12.2,26.7-6.4
		C355,282.6,357.9,294.8,352.2,304.1"/>
	<path class="st1" d="M737.9,348.8c44.8-0.3,81.3,20.9,81.5,47.3c0.2,26.4-36.1,6.7-80.9,7c-44.8,0.3-81.4,20.5-81.5-5.9
		C656.8,370.7,693,349.1,737.9,348.8"/>
	<path class="st2" d="M77.5,487.4l101.7,0.4c1.3,7.5,6.4,13.9,13.5,16.3c3.8,3.6,8.6,5.6,13.8,5.6c4.3,0,8.6-1.5,12.1-4.1
		c8.5-1.9,14.8-9,15.9-17.8h200c1.2,7.5,6.4,13.9,13.5,16.3c3.8,3.6,8.6,5.6,13.8,5.6c4.4,0,8.6-1.5,12.1-4.1
		c8.5-1.9,14.7-9,15.9-17.8h57.3c1.1,7.8,6.3,14.4,13.6,17c3.8,3.5,8.6,5.5,13.8,5.5c4.4,0,8.6-1.4,12.1-4.1c4.3-1,8-3.3,10.8-6.4
		c2.9-3.2,4.7-7.4,5.2-12h256.8c0.5,3.5,1.8,6.7,3.7,9.4c2.4,3.4,5.8,6.1,9.9,7.5c3.8,3.5,8.6,5.5,13.8,5.5c4.3,0,8.6-1.4,12.1-4.1
		c8.7-1.9,15.1-9.4,16-18.4h23.6c0-0.6,96,1.1,96.4,0.3c0.1-0.2,0.1-7.5-0.1-7.6c-8.9-3.1-95.3-0.6-95.5-0.8h-25
		c-2.5-10.7-13.8-18.6-27.2-18.6c-8.6,0-16.5,3.2-21.8,8.8L865,470c-0.4,0.5-0.7,0.8-1.1,1.2c-0.2,0.2-0.4,0.5-0.6,0.7l-0.1,0.2
		c-0.2,0.3-0.4,0.6-0.6,0.8c-0.1,0.2-0.2,0.3-0.3,0.4c0,0.1-0.1,0.1-0.1,0.2c-1.5-15-4.9-29.4-10-42.7c10.1-13.6,16.9-29,19.4-45.6
		c0.7-4.7,1.1-9.5,1.1-14.4c0-1.4,0-2.8-0.1-4.2c-0.2-4-0.6-7.9-1.2-11.7c-0.9-5.6-2.4-11-4.2-16.2c-4.1-11.6-10.3-22.3-18.3-32.1
		c2.8-14.8-0.5-50-12.8-52.5c-7.6-1.5-16.8,9.8-23.4,22.2c-23.3-13.5-51.8-21.5-82.5-21.5c-30.7,0-59.2,8-82.5,21.5
		c-6.6-12.4-15.8-23.7-23.4-22.2c-12.2,2.5-15.6,37.8-12.8,52.5c-8.1,9.8-14.3,20.7-18.4,32.3c-1.9,5.4-3.3,10.8-4.2,16.5
		c-0.6,3.8-1,7.6-1.2,11.5c-0.1,1.3-0.1,2.7-0.1,4c0,5,0.4,9.9,1.1,14.7c2.6,16.4,9.3,31.8,19.3,45.3c-4.9,12.9-8.2,26.6-9.8,41
		c-4.9-6.5-13.6-10.7-23.5-10.7c-8.6,0-16.6,3.2-21.9,8.8l-0.1,0.1c-0.4,0.5-0.7,0.8-1.1,1.2c-0.2,0.2-0.3,0.5-0.5,0.7l-0.1,0.2
		c-0.2,0.3-0.4,0.6-0.6,0.8c-0.1,0.2-0.2,0.3-0.3,0.4c-1,1.6-1.8,3.2-2.3,4.9l-0.1,0.3c-0.1,0.4-0.2,0.7-0.3,1h-58.1
		c-2.2-11-13.7-19.2-27.4-19.2c-2.6,0-5.3,0.3-7.8,0.9c0.7-18,10.5-33.5,24.1-55.1c4.6-7.3,9.7-15.6,15-24.6
		c12.8-22.2,15.4-48.5,11.4-70.7c-0.5-2.8-1.1-5.5-1.9-8.2c-2.5-9.5-6.4-18-11.2-24.7c-7.9-11.1-17.5-16-27.1-13.9
		c-3.1,0.7-6.1,1.2-9,1.4c-2.9,0.3-5.6,0.3-8.4,0.2c-18.2-0.7-33.6-9.1-47.6-18.5c-22-14.6-81-44.6-155.1-7.6
		c-2.2,1.1-4.2,2.3-6.2,3.7c-2.2,1.5-4.3,3.2-6.3,5c-19.8,18.2-29.1,51.4-32.6,87.8c-0.7,7.7-1.2,15.5-1.5,23.4
		c-1.3,37,2,74.6,5.3,101.1c-7.2,0.8-13.8,3.8-18.3,8.6l-0.1,0.1c-0.4,0.5-0.7,0.8-1.1,1.2c-0.2,0.2-0.4,0.5-0.5,0.7l-0.2,0.2
		c-0.2,0.3-0.4,0.6-0.6,0.8c-0.1,0.2-0.2,0.3-0.3,0.4c-1,1.6-1.8,3.2-2.3,4.9l-0.1,0.4c-0.1,0.4-0.2,0.8-0.3,1.2
		c0,0.1,0,0.3-0.1,0.4l-101.9,0.7C77.4,484.4,77.5,487.6,77.5,487.4 M867.1,484.8c0-1,0.1-2.1,0.4-3.1c0.1-0.3,0.1-0.5,0.2-0.8
		l0.1-0.2c0.1-0.4,0.2-0.7,0.4-1.1c0.2-0.6,0.6-1.3,0.9-1.9l0.2-0.3c0.1-0.2,0.3-0.4,0.4-0.5l0.1-0.2c0.2-0.2,0.3-0.4,0.4-0.5
		c0.2-0.3,0.4-0.5,0.7-0.8l0.1-0.1c3.7-3.9,9.8-6.3,16.1-6.3c8.7,0,16.4,4.4,18.9,10.5c0.4,1,0.7,2,0.8,3l0,0.3
		c0.2,0.9,0.3,1.8,0.3,2.7c0,0.7,0,1.5-0.2,2.2c-0.9,5.4-4.9,9.8-10.3,10.7l-1.1,0.2l-0.8,0.7c-2.2,1.9-5,2.9-7.9,2.9
		c-3.4,0-6.5-1.4-8.9-3.8l-0.7-0.8l-1-0.3c-4.4-1.3-7.8-5.1-8.8-9.6C867.2,486.8,867.1,485.8,867.1,484.8 M605.5,479.7
		c1-14.6,3.9-28.6,8.4-41.6c0.7-2.2,1.5-4.3,2.4-6.4c0.5-1.3,0.3-2.8-0.6-4c-1.4-1.8-2.7-3.7-4-5.6c-7.3-10.7-12.3-22.6-14.7-35.1
		c5.2,0.3,9.1-1,10-3.7c1.4-3.9-3.6-9.5-11.5-13.5c0.1-4,0.4-7.9,0.9-11.7c8.8,2.5,16.4,1.6,17.9-2.3c1.5-4.2-4.5-10.4-13.7-14.5
		c3.2-9.2,8-17.9,14-25.9c9.4-12.6,21.8-23.5,36.5-32c22.2-13,49.6-20.7,79-20.7c29.5,0,56.8,7.7,79,20.6
		c14.7,8.6,27.2,19.5,36.5,32.1c5.9,7.9,10.6,16.5,13.9,25.6c-9.6,4-16,10.5-14.4,14.8c1.5,4.1,9.5,4.9,18.6,2.1
		c0.6,3.8,0.9,7.7,1,11.6c-8.4,4-13.8,9.8-12.3,13.8c1.1,2.8,5.3,4.1,10.8,3.6c-2.3,12.6-7.4,24.4-14.6,35.2c-1.3,1.9-2.6,3.8-4,5.6
		c-0.9,1.1-1.1,2.6-0.6,4c0.8,2.1,1.6,4.2,2.4,6.3c4.5,13,7.4,27,8.4,41.6H605.5z M554.8,484.8c0-1,0.1-2.1,0.4-3.1
		c0-0.3,0.1-0.5,0.2-0.8l0.1-0.2c0.1-0.4,0.2-0.7,0.4-1.1c0.2-0.6,0.6-1.3,0.9-1.9l0.2-0.3c0.1-0.2,0.2-0.4,0.4-0.5l0.1-0.2
		c0.2-0.2,0.3-0.4,0.4-0.5c0.2-0.3,0.4-0.5,0.7-0.8l0.1-0.1c3.7-3.9,9.8-6,16.1-6.3c7.5-0.4,13.7,2.8,18,9.1c0.7,1,1.3,2.8,1.6,3.9
		l0.2,1c0.2,0.9,0.3,0.1,0.3,1c0,0.7-0.1,2.8-0.3,3.5c-0.9,5.4-4.9,9.8-10.3,10.7l-1,0.2l-0.8,0.7c-2.3,1.9-5,2.9-7.9,2.9
		c-3.4,0-6.5-1.4-8.9-3.8l-0.7-0.8l-1-0.3c-4.4-1.3-7.8-5.1-8.8-9.6C554.9,486.8,554.8,485.8,554.8,484.8 M442.1,484.2
		c0-1,0.1-2.1,0.4-3.1c0.1-0.3,0.1-0.5,0.2-0.7l0.1-0.2c0-0.1,0.1-0.3,0.2-0.5c0.3-0.9,0.7-1.7,1.2-2.5l0.2-0.3
		c0.1-0.2,0.3-0.4,0.4-0.5l0.1-0.1c0.2-0.2,0.3-0.4,0.4-0.5c0.2-0.3,0.4-0.5,0.6-0.8l0.1-0.1c0.4-0.4,0.8-0.8,1.2-1.2
		c2-1.8,4.6-3.1,7.4-4c2.3-0.7,4.9-1.1,7.5-1.1c9,0,17,4.7,19.2,11.1c0.3,0.7,0.5,1.5,0.6,2.3l0,0.3c0.2,0.9,0.2,1.7,0.2,2.6
		c0,1-0.1,1.9-0.3,2.8c-1,5.1-5,9.2-10.2,10.1l-1,0.2l-0.8,0.7c-1.7,1.4-3.7,2.4-5.8,2.7c-0.7,0.1-1.4,0.2-2.1,0.2
		c-2.1,0-4.1-0.6-5.9-1.5c-1.1-0.6-2.1-1.4-2.9-2.3l-0.7-0.7l-1-0.3c-4.2-1.3-7.4-4.7-8.6-8.9C442.3,486.6,442.1,485.4,442.1,484.2
		 M211.4,460.8c-2.8-22.2-5.6-52.4-5.7-83.4c10.7,20.6,24.9,35.1,39.9,38.6c2.1,0.5,4.4,0.8,6.9,0.8c9.2,0,20.5-4.5,30.8-21
		c24.2-38.7-17-110.6-40.5-145.9c1.7-1.1,3.4-2.2,5.2-3.1c70.4-35.2,126.4-6.7,147.3,7.1c14.2,9.5,30.9,18.6,50.7,19.7
		c0,0.7,0,1.4,0,2.1c0,22,17.8,39.9,39.8,39.9c4,0,7.9-0.6,11.5-1.7c3.3,20,0.7,43.5-10.8,63.5c-5.2,9-10.1,16.8-14.9,24.4
		c-14.4,23-25.6,40.8-25.3,62.6c-2.3,1.3-4.4,2.9-6.2,4.8l-0.1,0.1c-0.4,0.5-0.7,0.8-1.1,1.2c-0.2,0.2-0.3,0.5-0.5,0.7l-0.2,0.2
		c-0.2,0.3-0.4,0.6-0.6,0.8c-0.1,0.2-0.2,0.3-0.3,0.4c-1,1.6-1.8,3.2-2.3,4.9l-0.1,0.4c-0.1,0.4-0.2,0.8-0.3,1.2
		c0,0.1-0.1,0.3-0.1,0.4H234.1C232.2,469.9,223,462.4,211.4,460.8 M186.8,484.2c0-1,0.1-2.1,0.4-3.1c0.1-0.3,0.1-0.5,0.2-0.7
		l0.1-0.2c0.1-0.1,0.1-0.3,0.2-0.5c0.3-0.9,0.7-1.7,1.2-2.5l0.2-0.3c0.1-0.2,0.2-0.4,0.4-0.5l0.1-0.1c0.2-0.2,0.3-0.4,0.4-0.5
		c0.2-0.3,0.4-0.5,0.7-0.8l0.1-0.1c3.2-3.4,8.2-5.7,13.6-6.2c0.8-0.1,1.7-0.1,2.5-0.1c2,0,3.9,0.2,5.7,0.7
		c6.5,1.5,11.7,5.5,13.5,10.5c0.3,0.7,0.4,1.5,0.6,2.3l0,0.3c0.2,0.9,0.3,1.7,0.3,2.6c0,1-0.1,1.9-0.3,2.8c-1.1,5.1-5,9.1-10.1,10
		c0,0,0,0-0.1,0l-1,0.2l-0.8,0.7c-0.8,0.7-1.7,1.3-2.7,1.7c-1.6,0.8-3.4,1.2-5.2,1.2c-3.3,0-6.5-1.4-8.9-3.8l-0.7-0.7l-1-0.3
		c-4.2-1.3-7.4-4.7-8.6-8.9C187,486.6,186.8,485.4,186.8,484.2"/>
	<path class="st2" d="M698.3,388.9c3.5,0,6.4,2.9,6.4,6.5c0,3.6-2.9,6.5-6.4,6.5c-3.5,0-6.4-2.9-6.4-6.5
		C691.9,391.8,694.8,388.9,698.3,388.9"/>
	<path class="st2" d="M791.9,388.9c3.5,0,6.4,2.9,6.4,6.5c0,3.6-2.9,6.5-6.4,6.5c-3.5,0-6.4-2.9-6.4-6.5
		C785.5,391.8,788.4,388.9,791.9,388.9"/>
	<path class="st2" d="M722.9,419.4c2.2,0,3.9,1.8,3.9,4c0,3.5,2.8,6.4,6.3,6.4c3.5,0,6.3-2.9,6.3-6.4v-2.5h-1.6
		c-1.1,0-2.1-0.5-2.8-1.2c-0.7-0.7-1.2-1.8-1.2-2.9c0-2.3,1.8-4.1,4-4.1h1.6h7.9h1.7c1.1,0,2.1,0.4,2.8,1.2c0.7,0.7,1.2,1.8,1.2,2.9
		c0,2.2-1.8,4.1-4,4.1h-1.7v2.5c0,0,0,0,0,0.1c0,3.5,2.8,6.4,6.3,6.4c3.5,0,6.3-2.9,6.3-6.4c0-2.2,1.8-4,3.9-4c2.2,0,4,1.8,4,4
		c0,8-6.4,14.4-14.2,14.4c-4,0-7.7-1.7-10.2-4.4l0,0c-2.6,2.7-6.2,4.4-10.2,4.4c-7.8,0-14.2-6.4-14.2-14.4
		C719,421.1,720.8,419.4,722.9,419.4"/>
	<path class="st2" d="M339.3,284.8c3.5,0,6.4,2.9,6.4,6.5c0,3.6-2.9,6.5-6.4,6.5c-3.5,0-6.4-2.9-6.4-6.5
		C332.9,287.7,335.7,284.8,339.3,284.8"/>
	<path class="st2" d="M378,273.1c3.5,0,6.4,2.9,6.4,6.5c0,3.6-2.9,6.5-6.4,6.5c-3.5,0-6.4-2.9-6.4-6.5
		C371.7,275.9,374.5,273.1,378,273.1"/>
	<path class="st2" d="M381.6,341.5c2-0.9,4.4,0,5.3,2c6.6,14.6,21.2,21.8,36.2,17.9c2.1-0.5,4.3,0.8,4.8,2.9
		c0.5,2.2-0.8,4.3-2.9,4.9c-3.4,0.9-6.7,1.3-10,1.3c-15,0-28.5-8.7-35.3-23.6C378.8,344.8,379.7,342.4,381.6,341.5"/>
	<path class="st3" d="M309.3,221c-7.6,7.7-13.4,17-21.8,24.1c-8.4,7-17.7,13-27.4,17.9c-9.5,4.8-19.4,8.6-29.5,11.6
		c-5.1,1.5-10.2,2.8-15.4,4c-5.6,1.2-11.4,1.8-16.6,4c-4.1,1.8-1.5,7.5,2.1,7.8c5.6,0.4,11.6-1.5,17-2.7c5.6-1.3,11.1-2.7,16.6-4.4
		c10.9-3.4,21.5-7.7,31.5-13.1c18.3-10.1,41-26,44.8-48.5C310.7,221,309.9,220.5,309.3,221"/>
	<path class="st0" d="M308.7,224.4c-15.8-25.8-27.3-48.6-43-74.4"/>
	<path class="st3" d="M310.6,224.4c-0.2-3.3-2-6.3-3.5-9.2c-1.8-3.3-3.7-6.5-5.5-9.8c-3.5-6.4-7.1-12.7-10.6-19
		c-7.2-12.9-14-26.1-22.8-38c-2.4-3.2-7.2-0.5-5.3,3.2c6.5,13.2,14.3,25.9,21.6,38.7c3.6,6.3,7.1,12.7,10.9,18.9
		c1.9,3.2,3.8,6.4,5.9,9.6c1.8,2.7,3.6,5.8,6.4,7.4C308.9,226.8,310.7,225.9,310.6,224.4"/>
	<path class="st3" d="M202.7,286.5c-1.1-5.7-4.5-11.4-6.9-16.5c-2.8-5.8-5.6-11.6-8.4-17.4c-5.5-11.4-10.9-22.8-17.1-33.9
		c-1.7-3-5.7-0.4-4.4,2.6c5,11.7,10.6,23,16.3,34.4c2.8,5.6,5.5,11.1,8.3,16.7c2.6,5.3,5.1,11.6,9,16
		C201,289.8,203.1,288.2,202.7,286.5"/>
	<path class="st3" d="M294.1,195.8c-3.6,2.5-6.4,6.3-9.4,9.5c-3.2,3.5-6.6,6.7-10.1,9.8c-8.1,7.2-16.9,13.4-26.2,18.7
		c-9.6,5.5-19.5,10.3-29.9,14c-5.2,1.8-10.4,3.4-15.8,4.7c-5.3,1.3-11.3,1.6-16.4,3.4c-4.4,1.6-3.5,7.7,1.1,8.1
		c5.5,0.5,12.3-1.5,17.7-2.8c5.5-1.4,11-3.1,16.3-5c10.8-3.9,21.5-8.8,31.3-14.9c9.3-5.8,18.3-12.5,26.2-20.2
		c3.7-3.5,7.1-7.3,10.2-11.3c2.8-3.6,6-8,6.9-12.6C296.1,196.2,295.1,195.1,294.1,195.8"/>
	<path class="st3" d="M207.8,101.5c-4.4-8.3-14.8-10.1-23.3-9.6c-10.2,0.6-20.5,4.2-28.8,10.5c-15.7,12-23.2,35.6-11.6,53.2
		c5.4,8.2,16,16.9,26.3,13.8c2.2-0.7,3.2-4.5,0.7-5.6c-4.1-1.8-8.5-3-12.3-5.4c-3.9-2.5-7-6.1-9.1-10.2c-4.7-9.3-3-20.7,2.1-29.4
		c10.6-17.9,36.5-25.6,54.9-16.2C207.4,103,208.2,102.3,207.8,101.5"/>
	<path class="st3" d="M290.6,223.2c1,2.7,2.2,5.3,3.4,8c0.6,1.3,1.2,2.6,1.9,3.9c0.3,0.6,0.6,1.2,0.9,1.8c0.4,0.8,0.8,1.7,1.5,2.3
		c1,0.8,2.4,1.3,3.6,0.5c1.2-0.8,1.7-2.1,1.4-3.4c-0.3-1.5-1.6-2.8-2.5-4.1c-0.9-1.3-1.9-2.5-2.8-3.7c-1.8-2.2-3.5-4.4-5.4-6.4
		C291.7,221.3,290.2,222.1,290.6,223.2"/>
	<path class="st3" d="M275.4,237.6c0.4,2.4,1.2,4.6,2.1,6.8c0.5,1.2,1,2.5,1.5,3.7c0.5,1.1,1,2.4,1.6,3.5c0.5,1,1.7,1.8,2.9,1.7
		c1.3-0.1,2.2-0.6,2.8-1.7c0.6-1,0.6-2.4,0-3.4c-0.6-1.1-1.5-2.1-2.2-3.1c-0.8-1-1.6-2.1-2.4-3.1c-1.5-1.9-3-3.7-4.8-5.2
		C276.2,236.1,275.2,236.7,275.4,237.6"/>
	<path class="st3" d="M256.6,251.4c0.2,0.9,0.4,1.8,0.7,2.6c0.3,0.9,0.6,1.8,1,2.7c0.6,1.7,1.2,3.4,1.8,5.1c0.3,0.7,0.5,1.5,0.9,2.1
		c0.7,0.9,1.7,1.5,2.9,1.5c1.3-0.1,2.3-0.9,2.8-2c0.3-0.7,0.3-1.5,0.1-2.3c-0.2-0.7-0.6-1.2-1-1.8c-1.1-1.4-2.3-2.8-3.4-4.2
		c-0.7-0.8-1.3-1.6-2-2.4c-0.7-0.8-1.4-1.5-2.1-2.3C257.6,249.7,256.4,250.4,256.6,251.4"/>
	<path class="st3" d="M237.4,260.7c0,0.6-0.1,1.1,0.1,1.7c0.1,0.4,0.3,0.9,0.4,1.3c0.3,0.9,0.6,1.9,0.9,2.9c0.3,1,0.6,1.9,1,2.8
		c0.2,0.4,0.4,0.9,0.5,1.3c0.1,0.4,0.3,0.8,0.5,1.2c0.4,0.7,0.9,1,1.6,1.2c0.5,0.2,1.3,0,1.8-0.3c0.5-0.4,0.9-0.8,1.1-1.4
		c0.5-1.4-0.6-2.9-1.2-4.1c-0.5-0.9-1-1.7-1.6-2.6c-0.5-0.9-1.1-1.7-1.6-2.6c-0.2-0.4-0.5-0.8-0.7-1.2c-0.3-0.5-0.9-0.8-1.3-1.2
		C238.2,259.4,237.4,260.1,237.4,260.7"/>
	<path class="st3" d="M215.5,268.2c-1,1.2-0.6,2.7-0.3,4.1c0.2,1.2,0.6,2.3,0.9,3.4c0.3,1.1,0.6,2.2,1,3.3c0.4,1.1,0.9,2.2,1.3,3.3
		c0.4,0.9,0.8,1.6,1.6,2.1c0.9,0.6,2.1,0.6,3.1,0.2c2-0.9,2.5-3.1,1.7-5c-0.5-1.1-1-2.3-1.6-3.4c-0.6-1.1-1.2-2.2-1.8-3.2
		c-0.6-1.1-1.2-2.1-1.9-3.1c-0.4-0.6-0.8-1.1-1.3-1.5c-0.5-0.4-0.9-0.7-1.5-0.7C216.3,267.7,215.8,267.8,215.5,268.2"/>
	<path class="st0" d="M294.8,203c0,0-32.6,47.6-100.3,58.9l7.8,19.8c0,0,57.5-3.5,105.2-58.5L294.8,203z"/>
	<path class="st3" d="M200.7,284.2l-9.5-24.1l2.8-0.5c65.9-11.1,98.4-57.5,98.8-58l2-2.9l15.5,24.8l-1.1,1.3
		c-47.8,55.1-106.2,59.2-106.8,59.3L200.7,284.2z M197.7,263.8l6.1,15.5c9.6-1.1,59-9,100.7-56.2l-9.9-15.9
		C286.4,217.4,254.3,253.3,197.7,263.8z"/>
	<line class="st0" x1="298.7" y1="231.3" x2="291.9" y2="219.9"/>
	<polygon class="st3" points="296.7,232.5 289.9,221.1 293.9,218.7 300.7,230.1 	"/>
	<line class="st0" x1="288.3" y1="241.8" x2="281.5" y2="230.5"/>
	
		<rect x="282.5" y="229.5" transform="matrix(0.8589 -0.5121 0.5121 0.8589 -80.749 179.205)" class="st3" width="4.7" height="13.3"/>
	<line class="st0" x1="276.7" y1="250.8" x2="269.9" y2="239.4"/>
	
		<rect x="270.9" y="238.5" transform="matrix(0.8593 -0.5114 0.5114 0.8593 -86.9049 174.2358)" class="st3" width="4.7" height="13.3"/>
	<line class="st0" x1="264.8" y1="262.3" x2="258" y2="250.9"/>
	
		<rect x="259.1" y="250" transform="matrix(0.8587 -0.5125 0.5125 0.8587 -94.5762 170.2341)" class="st3" width="4.7" height="13.3"/>
	<line class="st0" x1="251.1" y1="267.1" x2="244.3" y2="255.7"/>
	
		<rect x="245.4" y="254.7" transform="matrix(0.8587 -0.5125 0.5125 0.8587 -98.9401 163.8742)" class="st3" width="4.7" height="13.3"/>
	<line class="st0" x1="236.7" y1="274" x2="229.9" y2="262.6"/>
	
		<rect x="231" y="261.7" transform="matrix(0.8588 -0.5123 0.5123 0.8588 -104.5016 157.4148)" class="st3" width="4.7" height="13.3"/>
	<line class="st0" x1="222.7" y1="280.5" x2="215.9" y2="269.1"/>
	
		<rect x="217" y="268.2" transform="matrix(0.858 -0.5136 0.5136 0.858 -110.0016 151.6783)" class="st3" width="4.7" height="13.3"/>
	<path class="st3" d="M796.2,211.8c-4.8,0-9.7,1.8-14.5,2.4c-5,0.6-10.1,0.8-15,0.8c-10.5,0-20.9-1.3-31.2-3.1
		c-10.8-1.9-21.7-4.2-32.7-4c-5.2,0.1-10.5,0.7-15.5,2.1c-5.1,1.3-11.9,3.5-15.3,7.8c-2.2,2.9-0.2,7,3.6,6.3
		c2.8-0.6,5.4-2.3,8.1-3.5c2.7-1.1,5.4-2,8.3-2.7c5.2-1.2,10.5-1.4,15.7-1.2c10.6,0.4,21,2.7,31.6,4.1c10.3,1.3,20.6,2.1,31,1.5
		c4.9-0.2,9.8-1,14.5-2.1c4.2-1,9.5-2.6,12.5-5.9C798.1,213.4,797.5,211.8,796.2,211.8"/>
	<path class="st3" d="M794,267.5c2.8-6.3,3.1-13.6,3.8-20.5c0.8-7.4,1.4-14.8,2-22.3c1.1-14.8,2-29.6,3-44.3c0.9-14,1.9-28,3.1-42
		c0.5-6.5,1.1-12.9,1.8-19.4c0.3-3.1,0.6-6.1,0.9-9.2c0.2-3.1-0.1-5.5-0.6-8.5c-0.4-2.5-4.4-3-5.4-0.7c-1.3,2.8-2.2,5-2.6,8.1
		c-0.5,3-0.9,6.1-1.2,9.2c-0.7,6.4-1.3,12.9-1.8,19.3c-1.2,14-2.1,27.9-2.9,41.9c-0.9,14.8-1.8,29.5-2.8,44.3
		c-0.5,7.4-0.9,14.9-1.4,22.3c-0.4,7-1.5,14.4,0.1,21.3C790.3,268.8,793.2,269.3,794,267.5"/>
	<path class="st3" d="M804.6,96.3c-10.5-0.5-21,1.6-31.5,2.4c-10.7,0.8-21.3,1.1-32,0.7c-10.4-0.3-20.8-1.2-31.2-3
		c-10.7-1.8-21.2-5.1-32-6.3c-4.4-0.5-6,6.4-2.2,8.4c9.8,5.1,21.2,6.9,32.1,8.6c11,1.7,22.2,2.7,33.3,2.9
		c10.8,0.2,21.8-0.6,32.5-2.2c10.9-1.6,22-3.5,31.6-9.3C806.2,97.9,805.7,96.4,804.6,96.3"/>
	<path class="st3" d="M807.5,97.7c-13.4-10.7-30.9-16.3-47.3-19.9c-20-4.4-40.8-5.2-60.9-1.4c-5.7,1.1-11.2,2.5-16.6,4.5
		c-5.7,2-12,4.3-16.3,8.7c-2.7,2.8,0.1,6.8,3.5,6.2c6.2-1,12.1-4.4,18.1-6.4c6-1.9,12.2-3.4,18.4-4.4c12.2-2,24.7-2.1,37-0.9
		c11.7,1.1,23.1,3.4,34.4,6.5c9.6,2.6,18.9,6.1,28.4,9.2C807.4,100.1,808.5,98.5,807.5,97.7"/>
	<path class="st3" d="M667.9,270.4c4.6-13.7,6.7-28,8.3-42.4c1.7-14.8,2.7-29.6,2.9-44.5c0.2-14.6-0.2-29.2-1.2-43.8
		c-0.5-7.3-1.2-14.5-2.1-21.8c-0.9-7.2-1.4-14.7-4.6-21.3c-1.7-3.6-6.1-1.3-6.6,1.8c-0.9,7.2,0.9,14.5,1.7,21.7
		c0.8,7.2,1.6,14.5,2.2,21.8c1.1,14.1,1.7,28.2,1.6,42.4c0,14.1-0.6,28.2-1.7,42.3c-1.2,14.5-3.1,28.9-3.7,43.4
		C664.6,271.8,667.3,272,667.9,270.4"/>
	<path class="st3" d="M771.6,219.6c2.7-5.8,2.5-12.9,3.1-19.2c0.7-7.5,1.6-15,2.8-22.4c0.9-6,1.9-12,2.6-18c0.2-1.9,0.4-3.8,0.6-5.7
		c0.1-0.5,0.4-3.1,0.2-1.8c0.6-3.2-4.3-4.6-4.9-1.4c-0.5,2.5-1.3,5-1.8,7.5c-1.3,6.1-2.1,12.3-2.9,18.5c-0.9,7.4-1.7,14.9-2.1,22.4
		c-0.4,6.4-1.3,14.3,2.1,20.1C771.3,219.8,771.5,219.8,771.6,219.6"/>
	<path class="st3" d="M753.3,218.4c2.4-5.2,2.9-11.2,3.6-16.8c0.8-6.7,1.6-13.3,2.3-20c1.4-13,3.5-26.2,2.7-39.4
		c-0.1-2.2-3.2-2.8-3.9-0.5c-3.3,12.5-3.8,25.6-5,38.4c-0.6,6.5-1.1,12.9-1.6,19.3c-0.4,6.2-1.3,12.7,0.2,18.8
		C751.8,218.9,752.9,219.2,753.3,218.4"/>
	<path class="st3" d="M734.2,216c1.6-2.4,1.8-5.6,2.2-8.4c0.4-3.2,0.7-6.4,0.9-9.6c0.6-7.1,1-14.2,1.5-21.2c1-13.8,2-27.6,1.8-41.5
		c0-2.3-3.7-3-4.1-0.5c-2.1,13.7-2.9,27.5-3.6,41.3c-0.4,7.1-0.7,14.2-1.1,21.3c-0.2,3.4-0.4,6.8-0.3,10.2c0,2.8-0.2,5.9,1.1,8.5
		C732.9,216.7,733.8,216.6,734.2,216"/>
	<path class="st3" d="M691.5,214.3c2.6-6.8,2.7-14.3,2.8-21.5c0.2-7.6,0.1-15.1-0.2-22.7c-0.3-5.9-0.6-11.8-1.2-17.6
		c-0.2-1.8-0.4-3.6-0.9-5.3c-0.1-0.5-0.3-1-0.4-1.4c-0.2-0.6-0.3-2-0.1,0c-0.3-2.8-4.6-2.8-4.3,0c-0.1-1,0,0.1,0,0.5
		c-0.1,0.5-0.1,1-0.2,1.4c-0.2,1.8-0.1,3.5,0,5.3c0.2,5.8,0.6,11.7,0.9,17.5c0.3,7.4,0.6,14.8,0.7,22.3c0,7.2-0.5,14.4,0.5,21.5
		C689.1,215.8,691.1,215.4,691.5,214.3"/>
	<path class="st3" d="M711.6,211.9c1.8-5.6,2.2-11.9,2.8-17.8c0.6-6.2,1.2-12.5,1.8-18.8c1.2-12.5,2.6-25,2.1-37.6
		c-0.1-2.4-3.8-3.2-4.3-0.6c-2.6,12.3-3.2,24.9-4,37.5l-1.2,18.8c-0.4,6.1-0.9,12.4,0,18.5C709,213.5,711.2,213.2,711.6,211.9"/>
	<path class="st0" d="M235.8,86c0,0,37.8,7.2,25.6,24c-12.2,16.8-94.4,102.9-94.4,102.9s-30.6,9-36.5-14.4
		c-5.8-23.3,12.2-35.4,12.2-35.4c12.1-11.3-7.6-31.7,17.4-53.4C188,85.5,209.8,111.4,235.8,86z"/>
	<path class="st3" d="M239.2,160.9c21.8,5.6,40.7-14.8,42.8-35.6c1.3-13.6-5.7-27.6-16.3-35.5c-13.2-9.9-30.7-10.2-44.9-2.4
		c-7.7,4.3-14.1,10.7-19.2,17.9c-2.7,3.8-4.9,7.9-6.8,12.1c-2,4.3-4.6,9.4-4.2,14.2c0.2,2.9,3.9,5.1,6.1,2.6
		c2.2-2.5,3.2-5.5,4.5-8.5c1.5-3.6,3.1-7,5-10.4c3.4-5.9,7.6-11.3,12.9-15.6c10.5-8.5,24.6-11.5,36.8-5.1
		c10.5,5.5,17.5,17.2,16.8,29.3c-0.1,2.3-0.7,5-1.7,7.8c-1.1,3.3-2.7,6.5-4.7,9.4c-6.5,9.4-16.9,12.1-27.2,15.2
		C237.1,157,236.9,160.4,239.2,160.9"/>
	<path class="st3" d="M195.5,184.7c-5.4,9.8-10.1,19.7-19.9,25.8c-9.3,5.8-22.1,7-31.8,1.3c-9.9-5.8-15-17.9-12.2-29.2
		c1.4-5.4,4.3-10.4,8.5-14c2.1-1.8,4.5-3.2,7.1-4.4c2.6-1.2,5.4-1.7,7.5-3.9c1.5-1.6,1.4-4.7-0.7-5.8c-5.2-2.5-11.4,0.4-15.9,3.3
		c-4.7,3-8.8,7.1-11.7,12c-6.1,10.2-6.5,23.1-1.6,33.8c10,21.9,38.1,25.9,56.1,12c8.9-6.9,16.8-18.4,16.8-30.2
		C197.6,184.1,196.1,183.7,195.5,184.7"/>
</g>
</svg>
